<?xml version="1.0" encoding="UTF-8"?>
<svg version="1.1" xmlns="http://www.w3.org/2000/svg" width="1309" height="421">
<path d="M0 0 C10.23 0 20.46 0 31 0 C31 1.65 31 3.3 31 5 C31.99 5.33 32.98 5.66 34 6 C34 7.65 34 9.3 34 11 C34.66 11 35.32 11 36 11 C36 13.64 36 16.28 36 19 C36.99 19 37.98 19 39 19 C39 20.98 39 22.96 39 25 C39.99 25 40.98 25 42 25 C42 26.98 42 28.96 42 31 C42.66 31 43.32 31 44 31 C45.35439668 33.70879335 45.06501451 36.00933268 45 39 C45.99 39 46.98 39 48 39 C48 40.65 48 42.3 48 44 C48.66 44 49.32 44 50 44 C50.309375 44.804375 50.61875 45.60875 50.9375 46.4375 C51.76335345 48.89080405 51.76335345 48.89080405 53 50 C53.2165625 51.7325 53.2165625 51.7325 53.4375 53.5 C53.623125 54.655 53.80875 55.81 54 57 C54.66 57.33 55.32 57.66 56 58 C56 59.98 56 61.96 56 64 C56.66 64 57.32 64 58 64 C58.33 65.98 58.66 67.96 59 70 C59.66 70 60.32 70 61 70 C61 72.64 61 75.28 61 78 C61.99 78 62.98 78 64 78 C64 79.65 64 81.3 64 83 C64.99 83.33 65.98 83.66 67 84 C68.81177431 88.2274734 69.45438289 92.45319073 70 97 C70.99 97.33 71.98 97.66 73 98 C73 99.65 73 101.3 73 103 C73.66 103 74.32 103 75 103 C75 104.65 75 106.3 75 108 C75.99 108.33 76.98 108.66 78 109 C78.74259349 111.31029085 79.411438 113.645752 80 116 C80.33 116.33 80.66 116.66 81 117 C81.04063832 118.66617115 81.042721 120.33388095 81 122 C81.99 122.33 82.98 122.66 84 123 C84 124.65 84 126.3 84 128 C84.99 128.33 85.98 128.66 87 129 C87 130.65 87 132.3 87 134 C87.66 134 88.32 134 89 134 C89 136.64 89 139.28 89 142 C89.99 142 90.98 142 92 142 C92 143.98 92 145.96 92 148 C92.99 148 93.98 148 95 148 C95 150.64 95 153.28 95 156 C95.99 156 96.98 156 98 156 C98 157.65 98 159.3 98 161 C98.99 161.33 99.98 161.66 101 162 C101 163.65 101 165.3 101 167 C101.66 167 102.32 167 103 167 C103 168.98 103 170.96 103 173 C103.99 173 104.98 173 106 173 C106 174.98 106 176.96 106 179 C106.66 179 107.32 179 108 179 C108.33 180.65 108.66 182.3 109 184 C109.66 184 110.32 184 111 184 C111.27263672 184.85271484 111.27263672 184.85271484 111.55078125 185.72265625 C112.78117943 189.50218706 114.03573468 193.19434738 115.6875 196.8125 C117 200 117 200 117 204 C117.66 204 118.32 204 119 204 C120.35439668 206.70879335 120.06501451 209.00933268 120 212 C120.99 212 121.98 212 123 212 C123.4640625 213.423125 123.4640625 213.423125 123.9375 214.875 C124.87394742 217.86080408 124.87394742 217.86080408 126 220 C126.039992 221.99960012 126.04346799 224.00047242 126 226 C126.66 226 127.32 226 128 226 C128 227.65 128 229.3 128 231 C128.99 231 129.98 231 131 231 C131 233.31 131 235.62 131 238 C131.99 238.33 132.98 238.66 134 239 C134.33 239.99 134.66 240.98 135 242 C135.66 242.33 136.32 242.66 137 243 C137 244.65 137 246.3 137 248 C137.99 248.33 138.98 248.66 140 249 C140 249.66 140 250.32 140 251 C140.66 251 141.32 251 142 251 C142 251.99 142 252.98 142 254 C142.99 254 143.98 254 145 254 C145 254.66 145 255.32 145 256 C145.99 256.33 146.98 256.66 148 257 C148 257.66 148 258.32 148 259 C148.99 259 149.98 259 151 259 C151 259.99 151 260.98 151 262 C151.99 262 152.98 262 154 262 C154 262.99 154 263.98 154 265 C154.66 265 155.32 265 156 265 C156 265.99 156 266.98 156 268 C156.61875 268.144375 157.2375 268.28875 157.875 268.4375 C160 269 160 269 162 270 C162 269.34 162 268.68 162 268 C162.99 268 163.98 268 165 268 C165 267.01 165 266.02 165 265 C165.99 265 166.98 265 168 265 C168.33 264.01 168.66 263.02 169 262 C170.32 262 171.64 262 173 262 C173 261.01 173 260.02 173 259 C173.99 259 174.98 259 176 259 C176.33 258.01 176.66 257.02 177 256 C177.66 256 178.32 256 179 256 C179 255.34 179 254.68 179 254 C180.65071396 252.97388051 182.31970006 251.97691857 184 251 C184.53625 250.443125 185.0725 249.88625 185.625 249.3125 C187 248 187 248 190 248 C190 247.01 190 246.02 190 245 C190.99 245 191.98 245 193 245 C193 244.01 193 243.02 193 242 C193.99 242 194.98 242 196 242 C196 241.34 196 240.68 196 240 C196.66 240 197.32 240 198 240 C198 239.01 198 238.02 198 237 C198.99 237 199.98 237 201 237 C201 236.01 201 235.02 201 234 C201.99 234 202.98 234 204 234 C204 233.01 204 232.02 204 231 C204.99 231 205.98 231 207 231 C207 229.35 207 227.7 207 226 C207.99 226 208.98 226 210 226 C210 225.01 210 224.02 210 223 C210.66 223 211.32 223 212 223 C212 222.01 212 221.02 212 220 C212.99 220 213.98 220 215 220 C215 219.01 215 218.02 215 217 C215.99 217 216.98 217 218 217 C218 216.34 218 215.68 218 215 C218.99 215 219.98 215 221 215 C221 213.35 221 211.7 221 210 C221.99 209.67 222.98 209.34 224 209 C224 208.01 224 207.02 224 206 C224.66 206 225.32 206 226 206 C226.33 205.01 226.66 204.02 227 203 C227.66 203 228.32 203 229 203 C229 202.34 229 201.68 229 201 C229.99 201 230.98 201 232 201 C232 199.35 232 197.7 232 196 C232.99 195.67 233.98 195.34 235 195 C235 194.01 235 193.02 235 192 C235.99 192 236.98 192 238 192 C238 191.01 238 190.02 238 189 C238.66 189 239.32 189 240 189 C240 188.34 240 187.68 240 187 C240.99 187 241.98 187 243 187 C243 184.03 243 181.06 243 178 C242.01 178 241.02 178 240 178 C240 177.01 240 176.02 240 175 C239.34 175 238.68 175 238 175 C238 173.68 238 172.36 238 171 C237.01 170.67 236.02 170.34 235 170 C235 169.01 235 168.02 235 167 C234.01 167 233.02 167 232 167 C232 166.01 232 165.02 232 164 C231.01 164 230.02 164 229 164 C229 162.35 229 160.7 229 159 C228.01 158.67 227.02 158.34 226 158 C226 157.34 226 156.68 226 156 C225.34 156 224.68 156 224 156 C224 155.01 224 154.02 224 153 C223.01 152.67 222.02 152.34 221 152 C221 150.35 221 148.7 221 147 C220.01 147 219.02 147 218 147 C216.3125 145.8125 216.3125 145.8125 215 144 C214.8125 141.3125 214.8125 141.3125 215 139 C214.01 139 213.02 139 212 139 C212 138.01 212 137.02 212 136 C211.34 136 210.68 136 210 136 C207.95830515 133.09451118 207 131.59857954 207 128 C206.01 128 205.02 128 204 128 C204 127.01 204 126.02 204 125 C203.01 124.67 202.02 124.34 201 124 C198 119.66666667 198 119.66666667 198 117 C197.34 117 196.68 117 196 117 C196 116.01 196 115.02 196 114 C195.01 114 194.02 114 193 114 C190 109.77777778 190 109.77777778 190 107 C189.34 107 188.68 107 188 107 C187.67 105.68 187.34 104.36 187 103 C185.35 103 183.7 103 182 103 C182 102.01 182 101.02 182 100 C181.01 100 180.02 100 179 100 C179 99.01 179 98.02 179 97 C178.01 97 177.02 97 176 97 C176 96.01 176 95.02 176 94 C175.01 94 174.02 94 173 94 C173 93.34 173 92.68 173 92 C171.35 91.67 169.7 91.34 168 91 C168 90.34 168 89.68 168 89 C167.01 89 166.02 89 165 89 C165 88.01 165 87.02 165 86 C164.01 86 163.02 86 162 86 C161.34 85.01 160.68 84.02 160 83 C160.33 81.35 160.66 79.7 161 78 C199.94 78 238.88 78 279 78 C279 80.31 279 82.62 279 85 C277.35 85.33 275.7 85.66 274 86 C274 86.99 274 87.98 274 89 C273.01 89 272.02 89 271 89 C271 89.99 271 90.98 271 92 C270.01 92 269.02 92 268 92 C267.9175 92.78375 267.835 93.5675 267.75 94.375 C267.5025 95.24125 267.255 96.1075 267 97 C265.68352881 97.69937532 264.34977849 98.36729133 263 99 C262.19471111 101.05000871 262.19471111 101.05000871 262 103 C261.34 103 260.68 103 260 103 C260 104.65 260 106.3 260 108 C260.66 108 261.32 108 262 108 C262 108.99 262 109.98 262 111 C262.99 111 263.98 111 265 111 C266.23921302 113.97411124 267.30058404 116.85262818 268 120 C268.99 120 269.98 120 271 120 C271 120.99 271 121.98 271 123 C271.66 123 272.32 123 273 123 C273.33 124.65 273.66 126.3 274 128 C274.66 128 275.32 128 276 128 C276 128.99 276 129.98 276 131 C276.99 131 277.98 131 279 131 C279 131.99 279 132.98 279 134 C279.99 134.33 280.98 134.66 282 135 C284.32265612 137.58072903 285 138.45176068 285 142 C285.99 142.33 286.98 142.66 288 143 C288 143.66 288 144.32 288 145 C288.66 145 289.32 145 290 145 C290.33 145.99 290.66 146.98 291 148 C291.66 148 292.32 148 293 148 C293.12375 147.2575 293.2475 146.515 293.375 145.75 C293.95486701 143.19858515 294.73708739 141.2732427 296 139 C296.99 139 297.98 139 299 139 C299 138.01 299 137.02 299 136 C299.99 136 300.98 136 302 136 C302.4640625 134.576875 302.4640625 134.576875 302.9375 133.125 C304 130 304 130 305 128 C305.66 128 306.32 128 307 128 C307 127.01 307 126.02 307 125 C307.99 125 308.98 125 310 125 C310 124.01 310 123.02 310 122 C310.99 122 311.98 122 313 122 C313 120.35 313 118.7 313 117 C313.99 117 314.98 117 316 117 C316 116.01 316 115.02 316 114 C316.66 114 317.32 114 318 114 C318.33 112.35 318.66 110.7 319 109 C319.66 109 320.32 109 321 109 C321 107.68 321 106.36 321 105 C320.01 105 319.02 105 318 105 C318 104.34 318 103.68 318 103 C317.34 103 316.68 103 316 103 C316 102.01 316 101.02 316 100 C315.01 100 314.02 100 313 100 C313 99.01 313 98.02 313 97 C312.01 97 311.02 97 310 97 C310 96.01 310 95.02 310 94 C309.01 94 308.02 94 307 94 C307 93.34 307 92.68 307 92 C306.01 91.67 305.02 91.34 304 91 C304 90.34 304 89.68 304 89 C303.34 89 302.68 89 302 89 C302 88.01 302 87.02 302 86 C301.01 86 300.02 86 299 86 C299 83.36 299 80.72 299 78 C328.37 78 357.74 78 388 78 C388 80.31 388 82.62 388 85 C387 86 387 86 384.4375 86.0625 C383.633125 86.041875 382.82875 86.02125 382 86 C382 86.99 382 87.98 382 89 C381.34 89 380.68 89 380 89 C379.67 89.99 379.34 90.98 379 92 C377.35 92 375.7 92 374 92 C374 92.66 374 93.32 374 94 C373.01 94 372.02 94 371 94 C371 94.99 371 95.98 371 97 C370.34 97 369.68 97 369 97 C368.67 97.99 368.34 98.98 368 100 C367.01 100 366.02 100 365 100 C365 100.66 365 101.32 365 102 C363.35 102.33 361.7 102.66 360 103 C360 103.66 360 104.32 360 105 C359.01 105 358.02 105 357 105 C357 105.99 357 106.98 357 108 C356.34 108 355.68 108 355 108 C354.67 108.99 354.34 109.98 354 111 C353.34 111 352.68 111 352 111 C351.67 111.99 351.34 112.98 351 114 C350.34 114 349.68 114 349 114 C348.67 114.99 348.34 115.98 348 117 C347.34 117 346.68 117 346 117 C346 117.66 346 118.32 346 119 C345.01 119 344.02 119 343 119 C343 119.99 343 120.98 343 122 C342.34 122 341.68 122 341 122 C341 122.99 341 123.98 341 125 C340.01 125 339.02 125 338 125 C337.67 126.65 337.34 128.3 337 130 C336.34 130 335.68 130 335 130 C335 130.99 335 131.98 335 133 C334.01 133 333.02 133 332 133 C332 133.99 332 134.98 332 136 C331.01 136 330.02 136 329 136 C329 136.99 329 137.98 329 139 C328.34 139 327.68 139 327 139 C327 139.99 327 140.98 327 142 C326.01 142 325.02 142 324 142 C323.67 143.65 323.34 145.3 323 147 C322.34 147 321.68 147 321 147 C321 147.99 321 148.98 321 150 C320.01 150 319.02 150 318 150 C318 150.99 318 151.98 318 153 C317.01 153 316.02 153 315 153 C315 153.99 315 154.98 315 156 C314.34 156 313.68 156 313 156 C313 156.99 313 157.98 313 159 C312.01 159 311.02 159 310 159 C309.67 160.32 309.34 161.64 309 163 C308.34 163 307.68 163 307 163 C307 164.32 307 165.64 307 167 C306.01 167 305.02 167 304 167 C304 167.99 304 168.98 304 170 C304.99 170 305.98 170 307 170 C307 170.99 307 171.98 307 173 C307.99 173.33 308.98 173.66 310 174 C310 175.32 310 176.64 310 178 C310.99 178 311.98 178 313 178 C315 181 315 181 315.5 183.625 C315.665 184.40875 315.83 185.1925 316 186 C316.66 186.33 317.32 186.66 318 187 C318 187.66 318 188.32 318 189 C318.99 189 319.98 189 321 189 C323.49977543 192.33303391 324 193.73303602 324 198 C324.99 198 325.98 198 327 198 C327 198.99 327 199.98 327 201 C327.66 201 328.32 201 329 201 C329 202.65 329 204.3 329 206 C329.99 206 330.98 206 332 206 C332 206.99 332 207.98 332 209 C332.99 209 333.98 209 335 209 C335 209.99 335 210.98 335 212 C335.99 212 336.98 212 338 212 C338 213.65 338 215.3 338 217 C338.99 217 339.98 217 341 217 C341 217.99 341 218.98 341 220 C341.66 220 342.32 220 343 220 C343 220.99 343 221.98 343 223 C343.99 223 344.98 223 346 223 C346.12375 223.639375 346.2475 224.27875 346.375 224.9375 C346.58125 225.618125 346.7875 226.29875 347 227 C347.66 227.33 348.32 227.66 349 228 C349 228.99 349 229.98 349 231 C349.99 231 350.98 231 352 231 C352 231.99 352 232.98 352 234 C352.66 234 353.32 234 354 234 C354.33 235.98 354.66 237.96 355 240 C355.66 240 356.32 240 357 240 C357 240.66 357 241.32 357 242 C357.99 242 358.98 242 360 242 C360 242.99 360 243.98 360 245 C360.99 245.33 361.98 245.66 363 246 C363 246.66 363 247.32 363 248 C363.99 248.33 364.98 248.66 366 249 C366 249.66 366 250.32 366 251 C366.99 251.33 367.98 251.66 369 252 C369 252.66 369 253.32 369 254 C369.66 254 370.32 254 371 254 C371 254.66 371 255.32 371 256 C371.99 256 372.98 256 374 256 C374 256.99 374 257.98 374 259 C374.99 259 375.98 259 377 259 C377 259.99 377 260.98 377 262 C377.5775 262.12375 378.155 262.2475 378.75 262.375 C381.02335767 263.00648824 382.9253529 263.88858191 385 265 C385 265.99 385 266.98 385 268 C385.99 268 386.98 268 388 268 C388 268.66 388 269.32 388 270 C388.99 270 389.98 270 391 270 C391 270.99 391 271.98 391 273 C392.32 273 393.64 273 395 273 C395 272.34 395 271.68 395 271 C396.32 270.67 397.64 270.34 399 270 C399 269.34 399 268.68 399 268 C399.99 268 400.98 268 402 268 C402 267.01 402 266.02 402 265 C403.3125 263.3125 403.3125 263.3125 405 262 C405.99 262 406.98 262 408 262 C408 261.01 408 260.02 408 259 C408.99 259 409.98 259 411 259 C411 258.01 411 257.02 411 256 C411.66 256 412.32 256 413 256 C413 255.34 413 254.68 413 254 C413.99 254 414.98 254 416 254 C416.33 252.35 416.66 250.7 417 249 C417.66 249 418.32 249 419 249 C419 205.44 419 161.88 419 117 C418.01 117 417.02 117 416 117 C416 116.01 416 115.02 416 114 C415.01 114 414.02 114 413 114 C413 113.01 413 112.02 413 111 C412.34 111 411.68 111 411 111 C411 110.01 411 109.02 411 108 C408.525 107.505 408.525 107.505 406 107 C406 106.34 406 105.68 406 105 C405.01 105 404.02 105 403 105 C403 104.34 403 103.68 403 103 C402.01 102.67 401.02 102.34 400 102 C400 101.34 400 100.68 400 100 C399.01 100 398.02 100 397 100 C397 98.68 397 97.36 397 96 C396.34 96 395.68 96 395 96 C395 94.68 395 93.36 395 92 C397.31 92 399.62 92 402 92 C402.33 91.01 402.66 90.02 403 89 C403.77085937 88.95101562 404.54171875 88.90203125 405.3359375 88.8515625 C406.33882812 88.77679688 407.34171875 88.70203125 408.375 88.625 C409.37273438 88.55539063 410.37046875 88.48578125 411.3984375 88.4140625 C414.15508879 88.23636036 414.15508879 88.23636036 416 86 C418.6015625 85.8046875 418.6015625 85.8046875 421.625 85.875 C422.62789062 85.89304687 423.63078125 85.91109375 424.6640625 85.9296875 C425.43492187 85.95289063 426.20578125 85.97609375 427 86 C427.33 85.01 427.66 84.02 428 83 C431.63 83 435.26 83 439 83 C439 82.34 439 81.68 439 81 C442.63 81 446.26 81 450 81 C450.33 80.01 450.66 79.02 451 78 C455.29 78 459.58 78 464 78 C464 77.01 464 76.02 464 75 C467.63 75 471.26 75 475 75 C475.33 74.01 475.66 73.02 476 72 C477.32 72.33 478.64 72.66 480 73 C480 130.75 480 188.5 480 248 C480.99 248 481.98 248 483 248 C483 248.99 483 249.98 483 251 C483.99 251.33 484.98 251.66 486 252 C486 253.32 486 254.64 486 256 C486.99 256.33 487.98 256.66 489 257 C489 257.66 489 258.32 489 259 C489.66 259 490.32 259 491 259 C491 259.99 491 260.98 491 262 C491.99 262 492.98 262 494 262 C494 262.99 494 263.98 494 265 C494.99 265 495.98 265 497 265 C497 265.99 497 266.98 497 268 C497.99 268 498.98 268 500 268 C500 268.66 500 269.32 500 270 C500.99 270.33 501.98 270.66 503 271 C503 271.66 503 272.32 503 273 C503.66 273 504.32 273 505 273 C505 274.98 505 276.96 505 279 C502.15423817 279.81380504 499.66628317 280.11406822 496.71064758 280.07556152 C495.43290466 280.06283455 495.43290466 280.06283455 494.12934875 280.04985046 C492.73754646 280.02807487 492.73754646 280.02807487 491.31762695 280.00585938 C489.84010452 279.98903862 489.84010452 279.98903862 488.33273315 279.97187805 C486.1846019 279.94683525 484.03649721 279.91943019 481.88842201 279.88996887 C478.43438015 279.84301731 474.98031927 279.80309176 471.52616882 279.76501465 C461.69953304 279.65536876 451.87306506 279.53306297 442.04663086 279.40673828 C434.86059408 279.31533944 427.6745025 279.23177603 420.48828125 279.15625 C419.29474092 279.14367723 418.1012006 279.13110447 416.87149239 279.11815071 C398.93848199 278.94163728 381.03693829 279.1291947 363.10931015 279.57168388 C345.07006734 280.0154926 327.07964967 279.9815546 309.04034424 279.60510254 C305.38314527 279.53100958 301.72574599 279.4683211 298.06835938 279.40429688 C291.04535878 279.27986147 284.02262442 279.14424552 277 279 C275.9453125 277.171875 275.9453125 277.171875 275 275 C275.875 272.25 275.875 272.25 277 270 C277.66 270 278.32 270 279 270 C279 269.34 279 268.68 279 268 C279.99 268 280.98 268 282 268 C282 267.01 282 266.02 282 265 C282.99 265 283.98 265 285 265 C285 264.01 285 263.02 285 262 C285.99 262 286.98 262 288 262 C288 261.01 288 260.02 288 259 C288.99 259 289.98 259 291 259 C291 258.01 291 257.02 291 256 C291.66 256 292.32 256 293 256 C293 255.34 293 254.68 293 254 C293.99 254 294.98 254 296 254 C296 253.01 296 252.02 296 251 C295.01 250.67 294.02 250.34 293 250 C293 249.34 293 248.68 293 248 C292.34 248 291.68 248 291 248 C291 247.01 291 246.02 291 245 C290.01 245 289.02 245 288 245 C288 243.02 288 241.04 288 239 C287.01 239 286.02 239 285 239 C283.3125 237.8125 283.3125 237.8125 282 236 C281.8125 233.3125 281.8125 233.3125 282 231 C281.01 231 280.02 231 279 231 C279 230.01 279 229.02 279 228 C278.34 228 277.68 228 277 228 C277 227.34 277 226.68 277 226 C276.01 225.67 275.02 225.34 274 225 C274 223.35 274 221.7 274 220 C273.01 220 272.02 220 271 220 C271 219.01 271 218.02 271 217 C270.01 217 269.02 217 268 217 C268 216.01 268 215.02 268 214 C267.34 214 266.68 214 266 214 C265.67 212.35 265.34 210.7 265 209 C264.34 209 263.68 209 263 209 C263 208.01 263 207.02 263 206 C262.01 206 261.02 206 260 206 C260 205.01 260 204.02 260 203 C259.34 203 258.68 203 258 203 C257.67 203.99 257.34 204.98 257 206 C256.01 206 255.02 206 254 206 C254 206.99 254 207.98 254 209 C253.01 209 252.02 209 251 209 C251 209.99 251 210.98 251 212 C250.01 212 249.02 212 248 212 C248 213.65 248 215.3 248 217 C247.34 217 246.68 217 246 217 C246 217.99 246 218.98 246 220 C245.01 220 244.02 220 243 220 C243 220.99 243 221.98 243 223 C242.01 223 241.02 223 240 223 C240 223.99 240 224.98 240 226 C239.01 226 238.02 226 237 226 C237 227.65 237 229.3 237 231 C236.34 231 235.68 231 235 231 C235 231.99 235 232.98 235 234 C234.01 234 233.02 234 232 234 C231.67 235.65 231.34 237.3 231 239 C230.34 239 229.68 239 229 239 C229 239.99 229 240.98 229 242 C228.01 242 227.02 242 226 242 C226 242.99 226 243.98 226 245 C225.01 245 224.02 245 223 245 C223 245.99 223 246.98 223 248 C223.99 248.33 224.98 248.66 226 249 C226 250.65 226 252.3 226 254 C226.99 254 227.98 254 229 254 C229 254.66 229 255.32 229 256 C229.99 256 230.98 256 232 256 C232 256.99 232 257.98 232 259 C232.99 259 233.98 259 235 259 C235 259.99 235 260.98 235 262 C235.66 262 236.32 262 237 262 C237 262.99 237 263.98 237 265 C237.99 265 238.98 265 240 265 C240 265.99 240 266.98 240 268 C240.99 268 241.98 268 243 268 C243 268.66 243 269.32 243 270 C243.99 270 244.98 270 246 270 C246 270.99 246 271.98 246 273 C246.66 273 247.32 273 248 273 C248 274.98 248 276.96 248 279 C180.68 279 113.36 279 44 279 C44 279.66 44 280.32 44 281 C42.68 281 41.36 281 40 281 C38.60064987 278.20129973 38.74734595 276.09501208 39 273 C40.3125 271.125 40.3125 271.125 42 270 C42.99 270 43.98 270 45 270 C45.268125 269.360625 45.53625 268.72125 45.8125 268.0625 C47 266 47 266 50 265 C50 264.01 50 263.02 50 262 C50.99 262 51.98 262 53 262 C53 261.01 53 260.02 53 259 C53.99 259 54.98 259 56 259 C56 258.01 56 257.02 56 256 C56.99 256 57.98 256 59 256 C59 255.34 59 254.68 59 254 C59.99 254 60.98 254 62 254 C62 253.01 62 252.02 62 251 C62.66 251 63.32 251 64 251 C64.33 250.01 64.66 249.02 65 248 C65.66 248 66.32 248 67 248 C67 246.02 67 244.04 67 242 C66.34 242 65.68 242 65 242 C62.96006486 237.07015675 61.59347032 233.42039575 62 228 C61.01 228 60.02 228 59 228 C58.690625 227.030625 58.38125 226.06125 58.0625 225.0625 C57.30476658 222.15934208 57.30476658 222.15934208 56 221 C55.95907063 218.66702567 55.95758277 216.33294775 56 214 C55.01 214 54.02 214 53 214 C52.731875 213.13375 52.46375 212.2675 52.1875 211.375 C51.10294505 207.99400021 51.10294505 207.99400021 49.375 205.0625 C47.77237439 201.49301568 47.76778829 198.87019508 48 195 C47.01 194.67 46.02 194.34 45 194 C45 192.35 45 190.7 45 189 C44.01 188.67 43.02 188.34 42 188 C42 185.69 42 183.38 42 181 C41.01 181 40.02 181 39 181 C39 179.02 39 177.04 39 175 C38.34 175 37.68 175 37 175 C37 173.02 37 171.04 37 169 C36.01 168.67 35.02 168.34 34 168 C32.8125 165.4375 32.8125 165.4375 32 163 C32.33 162.67 32.66 162.34 33 162 C29.74333728 162.56149357 28.04376677 163.37229986 26 166 C25.28552357 168.10332891 25.28552357 168.10332891 25 170 C24.01 170 23.02 170 22 170 C22 171.65 22 173.3 22 175 C21.34 175 20.68 175 20 175 C20 175.99 20 176.98 20 178 C19.01 178 18.02 178 17 178 C17 179.65 17 181.3 17 183 C16.01 183.33 15.02 183.66 14 184 C14 185.65 14 187.3 14 189 C13.01 189 12.02 189 11 189 C11 190.65 11 192.3 11 194 C10.01 194.33 9.02 194.66 8 195 C8 195.99 8 196.98 8 198 C7.34 198 6.68 198 6 198 C5.67 199.65 5.34 201.3 5 203 C4.34 203 3.68 203 3 203 C2.67 204.32 2.34 205.64 2 207 C-2.97601626 208.71050559 -6.42616295 207.00885647 -11 205 C-11 204.34 -11 203.68 -11 203 C-11.84304687 203.02320313 -12.68609375 203.04640625 -13.5546875 203.0703125 C-14.65039062 203.08835937 -15.74609375 203.10640625 -16.875 203.125 C-17.96554688 203.14820313 -19.05609375 203.17140625 -20.1796875 203.1953125 C-23 203 -23 203 -25 201 C-27.62976524 200.57446839 -27.62976524 200.57446839 -30.5625 200.4375 C-35.90277778 200.09722222 -35.90277778 200.09722222 -37 199 C-39.28804167 198.78933632 -41.58103822 198.63135159 -43.875 198.5 C-50.67245658 198.10918114 -50.67245658 198.10918114 -54 197 C-54 196.34 -54 195.68 -54 195 C-54.66 195 -55.32 195 -56 195 C-55.95875 195.94875 -55.9175 196.8975 -55.875 197.875 C-56 201 -56 201 -58 203 C-58.64767793 205.57061311 -58.64767793 205.57061311 -59 208 C-59.66 208 -60.32 208 -61 208 C-61.103125 208.680625 -61.20625 209.36125 -61.3125 210.0625 C-62.14725019 213.62915989 -63.49472754 216.66222194 -65 220 C-65.66 220 -66.32 220 -67 220 C-67 221.98 -67 223.96 -67 226 C-67.66 226.33 -68.32 226.66 -69 227 C-69.40729228 229.32156597 -69.74438677 231.6568787 -70 234 C-70.99 234 -71.98 234 -73 234 C-73 236.64 -73 239.28 -73 242 C-73.66 242 -74.32 242 -75 242 C-75 242.99 -75 243.98 -75 245 C-74.34 245 -73.68 245 -73 245 C-73 245.99 -73 246.98 -73 248 C-72.01 248 -71.02 248 -70 248 C-70 248.99 -70 249.98 -70 251 C-69.01 251 -68.02 251 -67 251 C-67 251.99 -67 252.98 -67 254 C-66.01 254 -65.02 254 -64 254 C-64 254.66 -64 255.32 -64 256 C-63.4225 256.28875 -62.845 256.5775 -62.25 256.875 C-59.125 258.4375 -59.125 258.4375 -56 260 C-56 260.66 -56 261.32 -56 262 C-55.01 262 -54.02 262 -53 262 C-53 262.99 -53 263.98 -53 265 C-52.01 265 -51.02 265 -50 265 C-50 265.99 -50 266.98 -50 268 C-48.35 268.66 -46.7 269.32 -45 270 C-45 272.97 -45 275.94 -45 279 C-56.2743054 279.13065448 -67.54861364 279.26106145 -78.82292557 279.39115143 C-84.05789581 279.45156355 -89.29286503 279.5120613 -94.52783203 279.57275391 C-99.57877119 279.63130982 -104.62971289 279.68964188 -109.68065643 279.74781799 C-111.60878339 279.7700654 -113.53690941 279.79239379 -115.46503448 279.81480408 C-118.16321068 279.84615078 -120.86139003 279.87721089 -123.55957031 279.90820312 C-124.35870346 279.91755386 -125.15783661 279.9269046 -125.98118591 279.9365387 C-135.92502467 280.04998355 -135.92502467 280.04998355 -139 278 C-138.45276317 274.62537285 -137.9451 272.91765 -136 270 C-135.34 270 -134.68 270 -134 270 C-134 269.34 -134 268.68 -134 268 C-133.01 268 -132.02 268 -131 268 C-131 267.01 -131 266.02 -131 265 C-130.01 265 -129.02 265 -128 265 C-128 264.01 -128 263.02 -128 262 C-127.01 262 -126.02 262 -125 262 C-125 261.01 -125 260.02 -125 259 C-122.6875 256.3125 -122.6875 256.3125 -120 254 C-119.01 254 -118.02 254 -117 254 C-117 253.01 -117 252.02 -117 251 C-116.01 251 -115.02 251 -114 251 C-113.67 250.01 -113.34 249.02 -113 248 C-112.34 248 -111.68 248 -111 248 C-110.67 247.01 -110.34 246.02 -110 245 C-108.515 244.01 -108.515 244.01 -107 243 C-106.67 242.01 -106.34 241.02 -106 240 C-105.01 240 -104.02 240 -103 240 C-103 239.01 -103 238.02 -103 237 C-102.01 237 -101.02 237 -100 237 C-100 234.36 -100 231.72 -100 229 C-99.01 229 -98.02 229 -97 229 C-97 227.02 -97 225.04 -97 223 C-96.34 223 -95.68 223 -95 223 C-95 221.35 -95 219.7 -95 218 C-94.01 217.67 -93.02 217.34 -92 217 C-92 215.35 -92 213.7 -92 212 C-91.01 212 -90.02 212 -89 212 C-89 209.36 -89 206.72 -89 204 C-88.34 203.67 -87.68 203.34 -87 203 C-86.34444881 200.47266765 -86.34444881 200.47266765 -86 198 C-85.34 198 -84.68 198 -84 198 C-84 196.35 -84 194.7 -84 193 C-83.01 192.67 -82.02 192.34 -81 192 C-81.020625 191.05125 -81.04125 190.1025 -81.0625 189.125 C-81 186 -81 186 -80 184 C-79.34 184 -78.68 184 -78 184 C-78 182.35 -78 180.7 -78 179 C-77.01 178.67 -76.02 178.34 -75 178 C-75 176.35 -75 174.7 -75 173 C-74.01 173 -73.02 173 -72 173 C-72.061875 171.80375 -72.12375 170.6075 -72.1875 169.375 C-72.20943937 165.26502405 -71.13130434 162.5521739 -69 159 C-68.34 159 -67.68 159 -67 159 C-67 157.02 -67 155.04 -67 153 C-66.01 153 -65.02 153 -64 153 C-64 151.35 -64 149.7 -64 148 C-63.01 148 -62.02 148 -61 148 C-61 145.36 -61 142.72 -61 140 C-60.01 139.67 -59.02 139.34 -58 139 C-58 137.35 -58 135.7 -58 134 C-57.34 134 -56.68 134 -56 134 C-56 132.02 -56 130.04 -56 128 C-55.01 128 -54.02 128 -53 128 C-53 126.35 -53 124.7 -53 123 C-52.01 122.67 -51.02 122.34 -50 122 C-50 119.69 -50 117.38 -50 115 C-49.01 114.67 -48.02 114.34 -47 114 C-47 112.35 -47 110.7 -47 109 C-46.01 108.67 -45.02 108.34 -44 108 C-44 106.35 -44 104.7 -44 103 C-43.34 103 -42.68 103 -42 103 C-42.04125 102.05125 -42.0825 101.1025 -42.125 100.125 C-42 97 -42 97 -40 95 C-39.60235737 93.01178687 -39.26224651 91.01055661 -39 89 C-38.01 89 -37.02 89 -36 89 C-36 87.02 -36 85.04 -36 83 C-35.01 83 -34.02 83 -33 83 C-33 80.69 -33 78.38 -33 76 C-32.01 75.67 -31.02 75.34 -30 75 C-30.04125 74.29875 -30.0825 73.5975 -30.125 72.875 C-29.98331668 69.61628372 -29.13265314 67.0440053 -28 64 C-27.01 64 -26.02 64 -25 64 C-25 62.02 -25 60.04 -25 58 C-24.01 58 -23.02 58 -22 58 C-21.896875 56.96875 -21.79375 55.9375 -21.6875 54.875 C-20.999227 50.99564311 -19.83518132 48.45014088 -18 45 C-17.30028027 43.01132287 -16.62335603 41.01391949 -16 39 C-15.34 39 -14.68 39 -14 39 C-14 37.02 -14 35.04 -14 33 C-13.01 33 -12.02 33 -11 33 C-11 30.69 -11 28.38 -11 26 C-10.01 25.67 -9.02 25.34 -8 25 C-7.67 23.35 -7.34 21.7 -7 20 C-6.34 20 -5.68 20 -5 20 C-5.0309375 18.5459375 -5.0309375 18.5459375 -5.0625 17.0625 C-5 14 -5 14 -4 13 C-3.63239269 10.67182036 -3.29758419 8.3381615 -3 6 C-2.01 5.67 -1.02 5.34 0 5 C0 3.35 0 1.7 0 0 Z M-6 72 C-6 74.64 -6 77.28 -6 80 C-6.66 80 -7.32 80 -8 80 C-8.185625 81.2065625 -8.185625 81.2065625 -8.375 82.4375 C-8.58125 83.283125 -8.7875 84.12875 -9 85 C-9.66 85.33 -10.32 85.66 -11 86 C-11.2475 87.2375 -11.2475 87.2375 -11.5 88.5 C-11.665 89.325 -11.83 90.15 -12 91 C-12.66 91.33 -13.32 91.66 -14 92 C-14.165 93.155 -14.33 94.31 -14.5 95.5 C-14.665 96.655 -14.83 97.81 -15 99 C-15.66 99.33 -16.32 99.66 -17 100 C-17 101.65 -17 103.3 -17 105 C-17.66 105 -18.32 105 -19 105 C-19 106.98 -19 108.96 -19 111 C-19.99 111 -20.98 111 -22 111 C-22.12375 112.134375 -22.2475 113.26875 -22.375 114.4375 C-22.684375 116.2009375 -22.684375 116.2009375 -23 118 C-23.99 118.495 -23.99 118.495 -25 119 C-25 120.98 -25 122.96 -25 125 C-25.99 125 -26.98 125 -28 125 C-28 126.98 -28 128.96 -28 131 C-28.99 131 -29.98 131 -31 131 C-31.12375 132.010625 -31.2475 133.02125 -31.375 134.0625 C-31.97413938 137.8370781 -32.92320764 141.33890597 -34 145 C-34 145.66 -34 146.32 -34 147 C-34.66 147 -35.32 147 -36 147 C-36 147.99 -36 148.98 -36 150 C-36.99 150 -37.98 150 -39 150 C-39.12375 151.258125 -39.2475 152.51625 -39.375 153.8125 C-39.69868059 157.10325263 -40.06604999 158.09907498 -42 161 C-42 161.99 -42 162.98 -42 164 C-38.04 164 -34.08 164 -30 164 C-29.505 163.01 -29.505 163.01 -29 162 C-26.3125 161.62109375 -26.3125 161.62109375 -23 161.4375 C-19.18265388 161.54568981 -19.18265388 161.54568981 -16 160 C-12.4099482 159.71406667 -8.81985155 159.55089829 -5.22265625 159.37890625 C-1.91423026 159.32736325 -1.91423026 159.32736325 0 157 C2.6015625 156.5859375 2.6015625 156.5859375 5.625 156.375 C7.12933594 156.26285156 7.12933594 156.26285156 8.6640625 156.1484375 C9.43492187 156.09945312 10.20578125 156.05046875 11 156 C11.495 154.515 11.495 154.515 12 153 C17.28 153 22.56 153 28 153 C27.67 152.01 27.34 151.02 27 150 C27 150.66 27 151.32 27 152 C25.68 152 24.36 152 23 152 C23.12568359 151.02160156 23.12568359 151.02160156 23.25390625 150.0234375 C23.82554104 145.11750856 24.15311982 140.86872815 23 136 C22.01 136 21.02 136 20 136 C20 134.02 20 132.04 20 130 C19.01 129.505 19.01 129.505 18 129 C17.59270772 126.67843403 17.25561323 124.3431213 17 122 C16.01 122 15.02 122 14 122 C14.04125 121.21625 14.0825 120.4325 14.125 119.625 C14.28728734 116.83883881 14.28728734 116.83883881 12 115 C11.375 112.875 11.375 112.875 11 111 C10.34 111 9.68 111 9 111 C9.0825 110.278125 9.165 109.55625 9.25 108.8125 C9.25245132 105.87130085 9.25245132 105.87130085 7.125 103.6875 C4.35290695 100.18161762 3.88515967 97.35203503 3 93 C2.34 93 1.68 93 1 93 C0.80664062 92.31292969 0.61328125 91.62585938 0.4140625 90.91796875 C0.02347656 89.56638672 0.02347656 89.56638672 -0.375 88.1875 C-0.63023437 87.29417969 -0.88546875 86.40085937 -1.1484375 85.48046875 C-1.95266661 82.79532104 -1.95266661 82.79532104 -4 80 C-4 79.01 -4 78.02 -4 77 C-4.31088368 75.32900023 -4.64080332 73.66128463 -5 72 C-5.33 72 -5.66 72 -6 72 Z M-45 164 C-44 167 -44 167 -44 167 Z " fill="#F5F3E7" transform="translate(180,69)"/>
<path d="M0 0 C1.32 0 2.64 0 4 0 C4.33 10.23 4.66 20.46 5 31 C5.66 31 6.32 31 7 31 C7.33 29.35 7.66 27.7 8 26 C9.65 25.67 11.3 25.34 13 25 C13 24.01 13 23.02 13 22 C13.99 22 14.98 22 16 22 C16 21.34 16 20.68 16 20 C16.99 20 17.98 20 19 20 C19 19.01 19 18.02 19 17 C20.65 17 22.3 17 24 17 C24 16.01 24 15.02 24 14 C24.99 14 25.98 14 27 14 C27.33 13.01 27.66 12.02 28 11 C29.65 11 31.3 11 33 11 C33 10.34 33 9.68 33 9 C34.65 9 36.3 9 38 9 C38.33 8.01 38.66 7.02 39 6 C42.3 6 45.6 6 49 6 C49.33 5.01 49.66 4.02 50 3 C62.54 3 75.08 3 88 3 C88 3.99 88 4.98 88 6 C90.64 6 93.28 6 96 6 C96 6.99 96 7.98 96 9 C97.98 9 99.96 9 102 9 C102 9.66 102 10.32 102 11 C102.99 11 103.98 11 105 11 C105 11.99 105 12.98 105 14 C105.99 14 106.98 14 108 14 C108.33 14.66 108.66 15.32 109 16 C111.02463255 16.65213292 111.02463255 16.65213292 113 17 C113 17.99 113 18.98 113 20 C113.99 20 114.98 20 116 20 C116 20.99 116 21.98 116 23 C116.99 23.33 117.98 23.66 119 24 C121.12710211 28.0966411 122.42160623 31.36233145 122 36 C122.99 36 123.98 36 125 36 C125 35.34 125 34.68 125 34 C125.66 34 126.32 34 127 34 C127.33 32.35 127.66 30.7 128 29 C128.66 29 129.32 29 130 29 C130.33 27.68 130.66 26.36 131 25 C131.66 25 132.32 25 133 25 C133 24.34 133 23.68 133 23 C138.75 20 138.75 20 141 20 C141 19.01 141 18.02 141 17 C142.32 17 143.64 17 145 17 C145 16.34 145 15.68 145 15 C146.65 14.67 148.3 14.34 150 14 C150 13.01 150 12.02 150 11 C151.65 11 153.3 11 155 11 C155 10.34 155 9.68 155 9 C156.98 9 158.96 9 161 9 C161.33 8.01 161.66 7.02 162 6 C165.3 6 168.6 6 172 6 C172.33 5.01 172.66 4.02 173 3 C185.21 3 197.42 3 210 3 C210.33 3.99 210.66 4.98 211 6 C213.64 6 216.28 6 219 6 C219 6.99 219 7.98 219 9 C220.65 9 222.3 9 224 9 C224 9.66 224 10.32 224 11 C225.32 11 226.64 11 228 11 C228 11.99 228 12.98 228 14 C228.66 14 229.32 14 230 14 C230 14.99 230 15.98 230 17 C231.65 17 233.3 17 235 17 C235.33 17.99 235.66 18.98 236 20 C236.99 20.33 237.98 20.66 239 21 C239 22.32 239 23.64 239 25 C239.99 25.33 240.98 25.66 242 26 C244.4294516 29.6441774 244.16179575 31.71241272 244 36 C244.99 36.33 245.98 36.66 247 37 C247 38.65 247 40.3 247 42 C247.99 42.33 248.98 42.66 250 43 C250 85.24 250 127.48 250 171 C250.99 171.33 251.98 171.66 253 172 C254.74672985 175.4934597 256 178.06845568 256 182 C256.66 182 257.32 182 258 182 C258 182.66 258 183.32 258 184 C258.99 184 259.98 184 261 184 C261 184.99 261 185.98 261 187 C261.99 187 262.98 187 264 187 C264 187.99 264 188.98 264 190 C264.99 190 265.98 190 267 190 C267 190.99 267 191.98 267 193 C267.99 193 268.98 193 270 193 C270 193.99 270 194.98 270 196 C270.66 196 271.32 196 272 196 C272 196.99 272 197.98 272 199 C272.99 199 273.98 199 275 199 C276.75 200.8125 276.75 200.8125 278 203 C277 206 277 206 275 207 C273.55550033 207.09196252 272.10681639 207.12193366 270.65939331 207.12025452 C269.74791534 207.12162918 268.83643738 207.12300385 267.89733887 207.12442017 C266.89464966 207.12082489 265.89196045 207.11722961 264.85888672 207.11352539 C263.80520905 207.11367142 262.75153137 207.11381744 261.66592407 207.1139679 C258.1704912 207.1132692 254.6751111 207.10547881 251.1796875 207.09765625 C248.76115956 207.09579192 246.34263124 207.09436809 243.92410278 207.09336853 C237.54871585 207.08954456 231.17335159 207.07971529 224.79797363 207.06866455 C218.29630846 207.05844785 211.79463963 207.05387035 205.29296875 207.04882812 C192.52863614 207.03809293 179.76431928 207.0212093 167 207 C166.20046862 203.71303767 165.90341064 202.28976808 167 199 C167.639375 198.690625 168.27875 198.38125 168.9375 198.0625 C171.45468915 196.7657662 171.96886948 195.5778263 173 193 C173.66 193 174.32 193 175 193 C175 192.01 175 191.02 175 190 C176.32 190 177.64 190 179 190 C179.268125 189.236875 179.53625 188.47375 179.8125 187.6875 C180.95134505 185.11011382 181.81416671 183.73045136 184 182 C184.66 182 185.32 182 186 182 C186 181.01 186 180.02 186 179 C186.99 179 187.98 179 189 179 C189 178.01 189 177.02 189 176 C189.99 176 190.98 176 192 176 C192 140.03 192 104.06 192 67 C191.01 66.67 190.02 66.34 189 66 C189 62.7 189 59.4 189 56 C188.01 56 187.02 56 186 56 C186 54.02 186 52.04 186 50 C185.01 50 184.02 50 183 50 C183 49.01 183 48.02 183 47 C182.4225 46.855625 181.845 46.71125 181.25 46.5625 C178.125 45.78125 178.125 45.78125 175 45 C175 44.01 175 43.02 175 42 C167.41 42 159.82 42 152 42 C152 42.66 152 43.32 152 44 C149.36 44.33 146.72 44.66 144 45 C144 45.66 144 46.32 144 47 C142.88625 47.37125 142.88625 47.37125 141.75 47.75 C138.79396573 49.09365194 137.23312872 50.68986685 135 53 C134.34 53 133.68 53 133 53 C132.67 53.99 132.34 54.98 132 56 C131.01 56 130.02 56 129 56 C129 56.66 129 57.32 129 58 C128.34 58 127.68 58 127 58 C127.10765862 67.80561261 127.22032355 77.61115379 127.33933926 87.41663551 C127.39444947 91.96995318 127.44785004 96.52327738 127.49731445 101.07666016 C127.54513405 105.4727964 127.59748247 109.86885774 127.65294075 114.26490402 C127.67328481 115.94016015 127.69201063 117.61543676 127.70907402 119.29072952 C127.73329489 121.64132311 127.76332402 123.99177736 127.79467773 126.34228516 C127.8004332 127.03136963 127.80618866 127.7204541 127.81211853 128.43041992 C127.85821426 131.4805629 128.05881964 134.34285901 128.57533264 137.35360718 C129 140 129 140 128 142 C127.85624578 145.37822416 127.92463652 147.77390955 129 151 C128.67 151.66 128.34 152.32 128 153 C127.84733388 154.73868744 127.75067404 156.48247501 127.68359375 158.2265625 C127.64169922 159.2578125 127.59980469 160.2890625 127.55664062 161.3515625 C127.51732422 162.43179688 127.47800781 163.51203125 127.4375 164.625 C127.39431641 165.71296875 127.35113281 166.8009375 127.30664062 167.921875 C127.2003547 170.6144517 127.09831943 173.30712253 127 176 C127.99 176 128.98 176 130 176 C130 176.99 130 177.98 130 179 C130.66 179 131.32 179 132 179 C133.33895632 180.66215268 134.67130142 182.32963607 136 184 C136.9075 184.721875 137.815 185.44375 138.75 186.1875 C139.4925 186.785625 140.235 187.38375 141 188 C141 188.66 141 189.32 141 190 C141.99 190.33 142.98 190.66 144 191 C147 195.33333333 147 195.33333333 147 198 C148.65 198.33 150.3 198.66 152 199 C152 201.64 152 204.28 152 207 C116.36 207 80.72 207 44 207 C44 204.36 44 201.72 44 199 C44.66 199 45.32 199 46 199 C46.33 198.01 46.66 197.02 47 196 C47.66 196 48.32 196 49 196 C49 195.01 49 194.02 49 193 C49.99 193 50.98 193 52 193 C52 192.01 52 191.02 52 190 C52.99 190 53.98 190 55 190 C55 189.01 55 188.02 55 187 C55.99 187 56.98 187 58 187 C58.268125 186.360625 58.53625 185.72125 58.8125 185.0625 C60 183 60 183 63 182 C63 181.01 63 180.02 63 179 C63.99 179 64.98 179 66 179 C65.98952637 178.44538086 65.97905273 177.89076172 65.96826172 177.31933594 C65.92657996 174.79627041 65.90063562 172.27327747 65.875 169.75 C65.84986328 168.44095703 65.84986328 168.44095703 65.82421875 167.10546875 C65.81777344 166.26113281 65.81132813 165.41679687 65.8046875 164.546875 C65.79421387 163.77182617 65.78374023 162.99677734 65.77294922 162.19824219 C66.02744715 159.73426438 66.84485582 158.1684386 68 156 C67.99444879 153.88733748 67.99444879 153.88733748 67.5625 151.8125 C67.376875 150.554375 67.19125 149.29625 67 148 C67.33 147.67 67.66 147.34 68 147 C68.24733137 142.85723125 68.24733137 142.85723125 67 139 C67.185625 138.21625 67.37125 137.4325 67.5625 136.625 C68.27387517 134.06859191 68.27387517 134.06859191 67.04174805 132.33496094 C65.53392049 128.95533525 65.73434158 125.64802769 65.76953125 122.015625 C65.76998947 121.24120056 65.77044769 120.46677612 65.7709198 119.66888428 C65.7739364 118.03151924 65.781805 116.39415692 65.79418945 114.75683594 C65.81233433 112.27268082 65.81469967 109.78890171 65.81445312 107.3046875 C65.81937347 105.70833016 65.82520403 104.11197532 65.83203125 102.515625 C65.83314407 101.78200745 65.8342569 101.04838989 65.83540344 100.2925415 C65.95490703 87.04509297 65.95490703 87.04509297 68 85 C68.23678716 82.30764224 68.42198025 79.63501844 68.5625 76.9375 C68.62727539 75.79958008 68.62727539 75.79958008 68.69335938 74.63867188 C68.79973633 72.75934562 68.90039934 70.87969756 69 69 C68.01 68.67 67.02 68.34 66 68 C66 64.04 66 60.08 66 56 C65.01 56 64.02 56 63 56 C63 55.01 63 54.02 63 53 C62.34 53 61.68 53 61 53 C60.67 51.02 60.34 49.04 60 47 C58.35 47 56.7 47 55 47 C55 46.34 55 45.68 55 45 C54.01 45 53.02 45 52 45 C52 44.01 52 43.02 52 42 C48.37435813 42.10954408 44.74978569 42.2402496 41.125 42.375 C39.57619141 42.42140625 39.57619141 42.42140625 37.99609375 42.46875 C36.51689453 42.52675781 36.51689453 42.52675781 35.0078125 42.5859375 C34.09660645 42.6173584 33.18540039 42.6487793 32.24658203 42.68115234 C29.80068814 42.79882511 29.80068814 42.79882511 28 45 C24.375 45.125 24.375 45.125 21 45 C21 45.66 21 46.32 21 47 C18.09451118 49.04169485 16.59857954 50 13 50 C13 50.99 13 51.98 13 53 C12.01 53 11.02 53 10 53 C10 53.99 10 54.98 10 56 C9.01 56 8.02 56 7 56 C6.67 56.99 6.34 57.98 6 59 C5.34 59 4.68 59 4 59 C4.08447274 66.99761215 4.17938268 74.99500397 4.28752708 82.99232769 C4.33741983 86.70602895 4.38375024 90.41970273 4.421875 94.13354492 C4.45881687 97.71928456 4.50520049 101.30479034 4.55806351 104.89032936 C4.57656029 106.25657857 4.5916856 107.62287782 4.60334396 108.9892025 C4.62028657 110.90655783 4.65045399 112.82378237 4.68115234 114.7409668 C4.69447601 115.83128708 4.70779968 116.92160736 4.7215271 118.04496765 C5.00685034 121.07269278 5.81553682 123.22206385 7 126 C7.17679279 128.62435127 7.25717236 131.1368163 7.23046875 133.7578125 C7.23001053 134.50151093 7.22955231 135.24520935 7.2290802 136.01144409 C7.22606735 137.58316648 7.21821004 139.15488614 7.20581055 140.7265625 C7.18771784 143.09646565 7.18530011 145.46597288 7.18554688 147.8359375 C7.13593579 170.42234929 7.13593579 170.42234929 4 176 C4.99 176 5.98 176 7 176 C7 176.99 7 177.98 7 179 C7.99 179 8.98 179 10 179 C10 179.99 10 180.98 10 182 C10.99 182 11.98 182 13 182 C15.6875 184.3125 15.6875 184.3125 18 187 C18 187.99 18 188.98 18 190 C18.99 190.33 19.98 190.66 21 191 C21 191.66 21 192.32 21 193 C21.99 193.33 22.98 193.66 24 194 C24 194.66 24 195.32 24 196 C24.99 196 25.98 196 27 196 C27 196.66 27 197.32 27 198 C27.99 198.33 28.98 198.66 30 199 C30.04241723 201.33294775 30.04092937 203.66702567 30 206 C29 207 29 207 27.19027615 207.12304783 C26.3947688 207.12212604 25.59926146 207.12120424 24.77964783 207.12025452 C23.86954453 207.12162918 22.95944122 207.12300385 22.02175903 207.12442017 C21.01547455 207.12082489 20.00919006 207.11722961 18.97241211 207.11352539 C17.91888046 207.11367142 16.86534882 207.11381744 15.77989197 207.1139679 C12.279022 207.11326826 8.77820448 207.10547348 5.27734375 207.09765625 C2.85738657 207.09579225 0.43742901 207.09436826 -1.98252869 207.09336853 C-8.36615024 207.08954192 -14.74974921 207.07971041 -21.13336182 207.06866455 C-27.64163914 207.05845351 -34.1499201 207.05387157 -40.65820312 207.04882812 C-53.43881175 207.03808827 -66.21940467 207.02120112 -79 207 C-79 204.36 -79 201.72 -79 199 C-78.01 198.67 -77.02 198.34 -76 198 C-76 197.34 -76 196.68 -76 196 C-75.34 196 -74.68 196 -74 196 C-74 195.01 -74 194.02 -74 193 C-73.01 193 -72.02 193 -71 193 C-71 192.01 -71 191.02 -71 190 C-70.01 190 -69.02 190 -68 190 C-67.67 189.01 -67.34 188.02 -67 187 C-66.34 187 -65.68 187 -65 187 C-64.67 186.01 -64.34 185.02 -64 184 C-63.34 184 -62.68 184 -62 184 C-62 183.34 -62 182.68 -62 182 C-61.34 182 -60.68 182 -60 182 C-60 181.01 -60 180.02 -60 179 C-59.01 179 -58.02 179 -57 179 C-57 178.01 -57 177.02 -57 176 C-56.01 176 -55.02 176 -54 176 C-54.11512153 174.27014758 -54.24255677 172.54111249 -54.375 170.8125 C-54.44460938 169.84957031 -54.51421875 168.88664063 -54.5859375 167.89453125 C-54.86316811 165.0314923 -54.86316811 165.0314923 -56.01147461 162.69946289 C-57.14658895 159.59969523 -57.24334827 157.20970524 -57.23046875 153.9140625 C-57.22926025 152.74206299 -57.22805176 151.57006348 -57.22680664 150.36254883 C-57.21383545 149.12915771 -57.20086426 147.8957666 -57.1875 146.625 C-57.18032959 145.37033936 -57.17315918 144.11567871 -57.16577148 142.82299805 C-56.948435 117.948435 -56.948435 117.948435 -55 116 C-54.66717634 109.24563754 -54.93181441 102.67615992 -56 96 C-56.07522969 93.66787973 -56.09325876 91.3314689 -56 89 C-55.67 88.67 -55.34 88.34 -55 88 C-54.89997545 85.34346557 -54.86122537 82.71870728 -54.875 80.0625 C-54.87113281 79.32064453 -54.86726562 78.57878906 -54.86328125 77.81445312 C-54.78260332 73.77677122 -54.78260332 73.77677122 -56 70 C-56.125 66.9375 -56.125 66.9375 -56 64 C-55.67 63.67 -55.34 63.34 -55 63 C-54.76321284 60.30764224 -54.57801975 57.63501844 -54.4375 54.9375 C-54.39431641 54.17888672 -54.35113281 53.42027344 -54.30664062 52.63867188 C-54.20026367 50.75934562 -54.09960066 48.87969756 -54 47 C-54.99 47 -55.98 47 -57 47 C-57 46.34 -57 45.68 -57 45 C-58.485 44.505 -58.485 44.505 -60 44 C-60 43.34 -60 42.68 -60 42 C-60.66 42 -61.32 42 -62 42 C-62 41.01 -62 40.02 -62 39 C-62.99 39 -63.98 39 -65 39 C-65 38.01 -65 37.02 -65 36 C-65.99 36 -66.98 36 -68 36 C-68 35.01 -68 34.02 -68 33 C-68.99 33 -69.98 33 -71 33 C-71 32.34 -71 31.68 -71 31 C-71.99 30.67 -72.98 30.34 -74 30 C-74 29.34 -74 28.68 -74 28 C-74.66 28 -75.32 28 -76 28 C-76 27.01 -76 26.02 -76 25 C-76.99 25 -77.98 25 -79 25 C-79 23.35 -79 21.7 -79 20 C-77.35 20 -75.7 20 -74 20 C-73.67 19.01 -73.34 18.02 -73 17 C-68.71 17 -64.42 17 -60 17 C-59.67 16.01 -59.34 15.02 -59 14 C-55.37 14 -51.74 14 -48 14 C-47.67 13.01 -47.34 12.02 -47 11 C-43.7 11 -40.4 11 -37 11 C-37 10.34 -37 9.68 -37 9 C-32.38 9 -27.76 9 -23 9 C-23 8.01 -23 7.02 -23 6 C-19.37 6 -15.74 6 -12 6 C-12 5.01 -12 4.02 -12 3 C-8.37 3 -4.74 3 -1 3 C-0.67 2.01 -0.34 1.02 0 0 Z " fill="#F4F2E6" transform="translate(988,141)"/>
<path d="M0 0 C1.18851563 0.10183594 2.37703125 0.20367187 3.6015625 0.30859375 C4.97441406 0.43427734 4.97441406 0.43427734 6.375 0.5625 C6.375 1.2225 6.375 1.8825 6.375 2.5625 C7.65117188 2.55089844 8.92734375 2.53929687 10.2421875 2.52734375 C11.91145687 2.51796583 13.58072783 2.50886563 15.25 2.5 C16.51263672 2.48743164 16.51263672 2.48743164 17.80078125 2.47460938 C18.60644531 2.47138672 19.41210938 2.46816406 20.2421875 2.46484375 C21.35762939 2.45698853 21.35762939 2.45698853 22.49560547 2.44897461 C24.375 2.5625 24.375 2.5625 26.375 3.5625 C26.375 4.2225 26.375 4.8825 26.375 5.5625 C30.335 5.5625 34.295 5.5625 38.375 5.5625 C38.375 6.5525 38.375 7.5425 38.375 8.5625 C41.015 8.5625 43.655 8.5625 46.375 8.5625 C46.375 9.2225 46.375 9.8825 46.375 10.5625 C48.025 10.5625 49.675 10.5625 51.375 10.5625 C51.705 11.5525 52.035 12.5425 52.375 13.5625 C53.138125 13.500625 53.90125 13.43875 54.6875 13.375 C57.375 13.5625 57.375 13.5625 59.1875 14.875 C60.375 16.5625 60.375 16.5625 60.375 19.5625 C62.355 19.5625 64.335 19.5625 66.375 19.5625 C66.375 20.2225 66.375 20.8825 66.375 21.5625 C67.365 21.5625 68.355 21.5625 69.375 21.5625 C69.375 22.5525 69.375 23.5425 69.375 24.5625 C71.025 24.8925 72.675 25.2225 74.375 25.5625 C74.375 26.5525 74.375 27.5425 74.375 28.5625 C75.365 28.8925 76.355 29.2225 77.375 29.5625 C78.365 31.0475 78.365 31.0475 79.375 32.5625 C80.365 32.8925 81.355 33.2225 82.375 33.5625 C86.375 37.90535714 86.375 37.90535714 86.375 41.5625 C87.035 41.5625 87.695 41.5625 88.375 41.5625 C88.375 42.5525 88.375 43.5425 88.375 44.5625 C89.365 44.8925 90.355 45.2225 91.375 45.5625 C91.375 46.8825 91.375 48.2025 91.375 49.5625 C92.365 49.8925 93.355 50.2225 94.375 50.5625 C94.375 52.2125 94.375 53.8625 94.375 55.5625 C95.365 55.5625 96.355 55.5625 97.375 55.5625 C98.79758812 59.38570557 99.61542276 62.47531305 99.375 66.5625 C100.365 66.8925 101.355 67.2225 102.375 67.5625 C103.5 70.5625 103.5 70.5625 104.375 73.5625 C104.705 73.8925 105.035 74.2225 105.375 74.5625 C105.46131874 75.90517413 105.48206473 77.25224322 105.47265625 78.59765625 C105.46943359 79.40654297 105.46621094 80.21542969 105.46289062 81.04882812 C105.45451172 81.89896484 105.44613281 82.74910156 105.4375 83.625 C105.43298828 84.47900391 105.42847656 85.33300781 105.42382812 86.21289062 C105.41200373 88.32945663 105.39406769 90.44598685 105.375 92.5625 C106.035 92.5625 106.695 92.5625 107.375 92.5625 C108.67975618 95.17201236 108.48801572 97.08951285 108.47265625 100.0078125 C108.46943359 101.08417969 108.46621094 102.16054687 108.46289062 103.26953125 C108.45451172 104.39746094 108.44613281 105.52539062 108.4375 106.6875 C108.43298828 107.82316406 108.42847656 108.95882812 108.42382812 110.12890625 C108.41201615 112.94015638 108.39554507 115.7513023 108.375 118.5625 C107.385 118.8925 106.395 119.2225 105.375 119.5625 C105.375 124.8425 105.375 130.1225 105.375 135.5625 C104.715 135.8925 104.055 136.2225 103.375 136.5625 C102.90976937 138.45783342 102.90976937 138.45783342 102.75 140.625 C102.564375 142.5740625 102.564375 142.5740625 102.375 144.5625 C101.385 144.5625 100.395 144.5625 99.375 144.5625 C99.375 146.5425 99.375 148.5225 99.375 150.5625 C98.715 150.5625 98.055 150.5625 97.375 150.5625 C97.375 152.2125 97.375 153.8625 97.375 155.5625 C96.385 155.5625 95.395 155.5625 94.375 155.5625 C94.375 157.5425 94.375 159.5225 94.375 161.5625 C93.385 161.5625 92.395 161.5625 91.375 161.5625 C91.375 163.2125 91.375 164.8625 91.375 166.5625 C90.385 166.5625 89.395 166.5625 88.375 166.5625 C88.436875 167.305 88.49875 168.0475 88.5625 168.8125 C88.34260006 172.03769908 87.59247812 173.25973426 85.375 175.5625 C84.715 175.5625 84.055 175.5625 83.375 175.5625 C83.045 176.5525 82.715 177.5425 82.375 178.5625 C81.715 178.5625 81.055 178.5625 80.375 178.5625 C80.375 179.2225 80.375 179.8825 80.375 180.5625 C79.385 180.5625 78.395 180.5625 77.375 180.5625 C77.375 181.5525 77.375 182.5425 77.375 183.5625 C76.385 183.5625 75.395 183.5625 74.375 183.5625 C74.045 184.5525 73.715 185.5425 73.375 186.5625 C72.055 186.5625 70.735 186.5625 69.375 186.5625 C69.375 187.5525 69.375 188.5425 69.375 189.5625 C68.385 189.5625 67.395 189.5625 66.375 189.5625 C66.045 190.5525 65.715 191.5425 65.375 192.5625 C62.77257586 194.21070195 61.51251221 194.5625 58.375 194.5625 C58.375 195.5525 58.375 196.5425 58.375 197.5625 C56.395 197.5625 54.415 197.5625 52.375 197.5625 C52.375 198.5525 52.375 199.5425 52.375 200.5625 C50.395 200.5625 48.415 200.5625 46.375 200.5625 C46.375 201.5525 46.375 202.5425 46.375 203.5625 C43.735 203.5625 41.095 203.5625 38.375 203.5625 C38.375 204.5525 38.375 205.5425 38.375 206.5625 C36.32421875 206.79036458 34.2734375 207.01822917 32.22265625 207.24609375 C30.36359771 207.38136614 30.36359771 207.38136614 29.375 208.5625 C27.95929877 208.64901611 26.539405 208.66954904 25.12109375 208.66015625 C24.26708984 208.65693359 23.41308594 208.65371094 22.53320312 208.65039062 C21.63537109 208.64201172 20.73753906 208.63363281 19.8125 208.625 C18.91080078 208.62048828 18.00910156 208.61597656 17.08007812 208.61132812 C14.84498686 208.59950225 12.61002563 208.5830222 10.375 208.5625 C10.045 209.5525 9.715 210.5425 9.375 211.5625 C5.91668414 211.59144547 2.45839928 211.60928 -1 211.625 C-1.98484375 211.63337891 -2.9696875 211.64175781 -3.984375 211.65039062 C-4.92539062 211.65361328 -5.86640625 211.65683594 -6.8359375 211.66015625 C-7.70524902 211.66539307 -8.57456055 211.67062988 -9.47021484 211.67602539 C-11.625 211.5625 -11.625 211.5625 -13.625 210.5625 C-13.625 209.9025 -13.625 209.2425 -13.625 208.5625 C-14.84058594 208.57410156 -16.05617188 208.58570313 -17.30859375 208.59765625 C-18.89322764 208.60703278 -20.47786318 208.61613313 -22.0625 208.625 C-22.86494141 208.63337891 -23.66738281 208.64175781 -24.49414062 208.65039062 C-26.53795221 208.6590143 -28.58183902 208.6147815 -30.625 208.5625 C-30.955 208.2325 -31.285 207.9025 -31.625 207.5625 C-33.95317964 207.19489269 -36.2868385 206.86008419 -38.625 206.5625 C-38.955 205.5725 -39.285 204.5825 -39.625 203.5625 C-42.265 203.5625 -44.905 203.5625 -47.625 203.5625 C-47.625 202.9025 -47.625 202.2425 -47.625 201.5625 C-48.73875 201.43875 -49.8525 201.315 -51 201.1875 C-54.625 200.5625 -54.625 200.5625 -56.625 198.5625 C-58.27491582 197.85539322 -59.94062256 197.18306011 -61.625 196.5625 C-61.625 195.9025 -61.625 195.2425 -61.625 194.5625 C-62.615 194.5625 -63.605 194.5625 -64.625 194.5625 C-64.625 193.9025 -64.625 193.2425 -64.625 192.5625 C-65.945 192.2325 -67.265 191.9025 -68.625 191.5625 C-68.625 190.9025 -68.625 190.2425 -68.625 189.5625 C-69.945 189.5625 -71.265 189.5625 -72.625 189.5625 C-72.625 188.5725 -72.625 187.5825 -72.625 186.5625 C-73.615 186.5625 -74.605 186.5625 -75.625 186.5625 C-75.625 185.5725 -75.625 184.5825 -75.625 183.5625 C-76.615 183.5625 -77.605 183.5625 -78.625 183.5625 C-78.625 182.5725 -78.625 181.5825 -78.625 180.5625 C-79.615 180.5625 -80.605 180.5625 -81.625 180.5625 C-81.625 179.9025 -81.625 179.2425 -81.625 178.5625 C-82.615 178.2325 -83.605 177.9025 -84.625 177.5625 C-84.625 176.9025 -84.625 176.2425 -84.625 175.5625 C-85.285 175.5625 -85.945 175.5625 -86.625 175.5625 C-86.625 174.5725 -86.625 173.5825 -86.625 172.5625 C-87.615 172.5625 -88.605 172.5625 -89.625 172.5625 C-89.625 171.5725 -89.625 170.5825 -89.625 169.5625 C-90.615 169.2325 -91.605 168.9025 -92.625 168.5625 C-92.625 167.2425 -92.625 165.9225 -92.625 164.5625 C-93.615 164.2325 -94.605 163.9025 -95.625 163.5625 C-95.9971042 162.23946283 -96.33130173 160.90512065 -96.625 159.5625 C-97.285 159.2325 -97.945 158.9025 -98.625 158.5625 C-99.40625 156.78515625 -99.40625 156.78515625 -100.125 154.625 C-101.04902464 151.85794796 -101.51637369 150.67112631 -103.625 148.5625 C-103.75 144.9375 -103.75 144.9375 -103.625 141.5625 C-104.615 141.5625 -105.605 141.5625 -106.625 141.5625 C-106.74875 140.469375 -106.8725 139.37625 -107 138.25 C-107.37964801 134.48868198 -107.37964801 134.48868198 -109.625 131.5625 C-109.87387766 129.15291176 -110.02856627 126.73298675 -110.125 124.3125 C-110.28677479 120.2843077 -110.54000202 116.85256744 -111.67578125 112.9765625 C-112.67129737 109.39598189 -112.69653546 106.86128498 -112.3125 103.1875 C-112.21324219 102.14851563 -112.11398437 101.10953125 -112.01171875 100.0390625 C-111.625 97.5625 -111.625 97.5625 -110.625 96.5625 C-110.60434545 95.1874973 -110.63393284 93.81161411 -110.6875 92.4375 C-110.75033232 88.07414476 -110.02647508 84.67933305 -108.625 80.5625 C-107.965 80.5625 -107.305 80.5625 -106.625 80.5625 C-106.625 76.9325 -106.625 73.3025 -106.625 69.5625 C-105.635 69.5625 -104.645 69.5625 -103.625 69.5625 C-103.625 67.9125 -103.625 66.2625 -103.625 64.5625 C-102.14 64.0675 -102.14 64.0675 -100.625 63.5625 C-100.625 61.9125 -100.625 60.2625 -100.625 58.5625 C-99.965 58.5625 -99.305 58.5625 -98.625 58.5625 C-98.625 56.9125 -98.625 55.2625 -98.625 53.5625 C-97.14 53.0675 -97.14 53.0675 -95.625 52.5625 C-95.295 50.9125 -94.965 49.2625 -94.625 47.5625 C-93.965 47.5625 -93.305 47.5625 -92.625 47.5625 C-92.625 46.5725 -92.625 45.5825 -92.625 44.5625 C-91.635 44.5625 -90.645 44.5625 -89.625 44.5625 C-89.5425 44.02625 -89.46 43.49 -89.375 42.9375 C-88.34464299 39.67470279 -86.67960338 37.281828 -84.625 34.5625 C-83.14 34.0675 -83.14 34.0675 -81.625 33.5625 C-81.625 32.5725 -81.625 31.5825 -81.625 30.5625 C-80.635 30.5625 -79.645 30.5625 -78.625 30.5625 C-78.625 29.5725 -78.625 28.5825 -78.625 27.5625 C-77.635 27.5625 -76.645 27.5625 -75.625 27.5625 C-75.625 26.5725 -75.625 25.5825 -75.625 24.5625 C-74.635 24.5625 -73.645 24.5625 -72.625 24.5625 C-72.13 23.0775 -72.13 23.0775 -71.625 21.5625 C-69.02257586 19.91429805 -67.76251221 19.5625 -64.625 19.5625 C-64.625 18.5725 -64.625 17.5825 -64.625 16.5625 C-62.645 16.5625 -60.665 16.5625 -58.625 16.5625 C-58.625 15.5725 -58.625 14.5825 -58.625 13.5625 C-56.975 13.5625 -55.325 13.5625 -53.625 13.5625 C-53.625 12.5725 -53.625 11.5825 -53.625 10.5625 C-51.645 10.5625 -49.665 10.5625 -47.625 10.5625 C-47.625 9.9025 -47.625 9.2425 -47.625 8.5625 C-44.985 8.5625 -42.345 8.5625 -39.625 8.5625 C-39.625 7.5725 -39.625 6.5825 -39.625 5.5625 C-35.995 5.5625 -32.365 5.5625 -28.625 5.5625 C-28.625 4.5725 -28.625 3.5825 -28.625 2.5625 C-22.025 2.5625 -15.425 2.5625 -8.625 2.5625 C-8.625 1.9025 -8.625 1.2425 -8.625 0.5625 C-5.68113377 -0.90943312 -3.25109964 -0.28686173 0 0 Z M-15.625 24.5625 C-15.955 25.2225 -16.285 25.8825 -16.625 26.5625 C-18.2726038 27.27497732 -19.94263529 27.93650383 -21.625 28.5625 C-22.96550052 29.21463539 -24.30161368 29.87629969 -25.625 30.5625 C-25.625 31.2225 -25.625 31.8825 -25.625 32.5625 C-26.615 32.5625 -27.605 32.5625 -28.625 32.5625 C-28.625 33.5525 -28.625 34.5425 -28.625 35.5625 C-29.615 35.5625 -30.605 35.5625 -31.625 35.5625 C-31.625 36.5525 -31.625 37.5425 -31.625 38.5625 C-32.615 38.5625 -33.605 38.5625 -34.625 38.5625 C-34.934375 39.655625 -35.24375 40.74875 -35.5625 41.875 C-36.20837897 44.11657994 -36.8873117 46.3494351 -37.625 48.5625 C-38.285 48.8925 -38.945 49.2225 -39.625 49.5625 C-40.32991267 51.88456525 -40.99712429 54.21843068 -41.625 56.5625 C-42.12 57.0575 -42.12 57.0575 -42.625 57.5625 C-42.90453219 59.6212768 -43.07234351 61.67978432 -43.24609375 63.75 C-43.37113281 64.348125 -43.49617187 64.94625 -43.625 65.5625 C-44.615 66.0575 -44.615 66.0575 -45.625 66.5625 C-45.65005615 67.19341553 -45.6751123 67.82433105 -45.70092773 68.47436523 C-45.81654137 71.31646825 -45.93942316 74.15821083 -46.0625 77 C-46.10181641 77.99322266 -46.14113281 78.98644531 -46.18164062 80.00976562 C-46.24448242 81.42612305 -46.24448242 81.42612305 -46.30859375 82.87109375 C-46.34525146 83.74564209 -46.38190918 84.62019043 -46.41967773 85.52124023 C-46.625 87.5625 -46.625 87.5625 -47.625 88.5625 C-47.72446453 90.33109193 -47.75580217 92.10361451 -47.7578125 93.875 C-47.75910156 94.95007813 -47.76039063 96.02515625 -47.76171875 97.1328125 C-47.75785156 98.26460938 -47.75398437 99.39640625 -47.75 100.5625 C-47.75386719 101.69429688 -47.75773438 102.82609375 -47.76171875 103.9921875 C-47.76042969 105.06726563 -47.75914062 106.14234375 -47.7578125 107.25 C-47.75668457 108.24386719 -47.75555664 109.23773438 -47.75439453 110.26171875 C-47.8833433 112.52625226 -47.8833433 112.52625226 -46.625 113.5625 C-46.46759395 115.26813778 -46.37406608 116.97977244 -46.30859375 118.69140625 C-46.26669922 119.72587891 -46.22480469 120.76035156 -46.18164062 121.82617188 C-46.12266602 123.4590918 -46.12266602 123.4590918 -46.0625 125.125 C-46.01931641 126.21748047 -45.97613281 127.30996094 -45.93164062 128.43554688 C-45.82517932 131.14439564 -45.72316484 133.85333992 -45.625 136.5625 C-44.635 136.5625 -43.645 136.5625 -42.625 136.5625 C-42.69010417 138.58072917 -42.75520833 140.59895833 -42.8203125 142.6171875 C-42.80831689 144.80113645 -42.80831689 144.80113645 -40.625 146.5625 C-40.24776444 148.89878839 -40.119845 151.20554686 -39.96875 153.56640625 C-39.8553125 154.22511719 -39.741875 154.88382813 -39.625 155.5625 C-38.965 155.8925 -38.305 156.2225 -37.625 156.5625 C-37 159.125 -37 159.125 -36.625 161.5625 C-35.965 161.5625 -35.305 161.5625 -34.625 161.5625 C-34.625 163.5425 -34.625 165.5225 -34.625 167.5625 C-33.635 167.5625 -32.645 167.5625 -31.625 167.5625 C-31.50125 168.14 -31.3775 168.7175 -31.25 169.3125 C-30.61851176 171.58585767 -29.73641809 173.4878529 -28.625 175.5625 C-27.635 175.5625 -26.645 175.5625 -25.625 175.5625 C-25.625 176.5525 -25.625 177.5425 -25.625 178.5625 C-24.635 178.5625 -23.645 178.5625 -22.625 178.5625 C-22.625 179.5525 -22.625 180.5425 -22.625 181.5625 C-20.975 181.5625 -19.325 181.5625 -17.625 181.5625 C-17.625 182.2225 -17.625 182.8825 -17.625 183.5625 C-15.975 183.8925 -14.325 184.2225 -12.625 184.5625 C-12.625 185.2225 -12.625 185.8825 -12.625 186.5625 C-3.055 186.5625 6.515 186.5625 16.375 186.5625 C16.375 185.5725 16.375 184.5825 16.375 183.5625 C17.365 183.5625 18.355 183.5625 19.375 183.5625 C19.375 182.9025 19.375 182.2425 19.375 181.5625 C21.025 181.5625 22.675 181.5625 24.375 181.5625 C24.375 180.5725 24.375 179.5825 24.375 178.5625 C25.365 178.5625 26.355 178.5625 27.375 178.5625 C27.705 176.9125 28.035 175.2625 28.375 173.5625 C29.035 173.5625 29.695 173.5625 30.375 173.5625 C30.705 172.5725 31.035 171.5825 31.375 170.5625 C32.035 170.2325 32.695 169.9025 33.375 169.5625 C33.375 167.9125 33.375 166.2625 33.375 164.5625 C34.035 164.5625 34.695 164.5625 35.375 164.5625 C35.87 160.6025 35.87 160.6025 36.375 156.5625 C37.035 156.5625 37.695 156.5625 38.375 156.5625 C38.560625 154.6134375 38.560625 154.6134375 38.75 152.625 C38.9609375 150.41015625 38.9609375 150.41015625 39.375 148.5625 C40.035 148.2325 40.695 147.9025 41.375 147.5625 C41.375 142.2825 41.375 137.0025 41.375 131.5625 C42.365 131.2325 43.355 130.9025 44.375 130.5625 C44.375 117.6925 44.375 104.8225 44.375 91.5625 C43.715 91.2325 43.055 90.9025 42.375 90.5625 C42.07871257 88.5872505 41.79254029 86.60891091 41.59765625 84.62109375 C41.403719 82.44142708 41.403719 82.44142708 40.75 79.875 C40.31445785 77.18915672 40.70181685 75.18043448 41.375 72.5625 C40.715 72.2325 40.055 71.9025 39.375 71.5625 C39.03125 69.56640625 39.03125 69.56640625 38.875 67.125 C38.72378389 63.39690381 38.72378389 63.39690381 36.375 60.5625 C35.76443913 58.54036722 35.23136005 56.49422022 34.75 54.4375 C34.48960937 53.34179688 34.22921875 52.24609375 33.9609375 51.1171875 C33.76757812 50.27414063 33.57421875 49.43109375 33.375 48.5625 C32.715 48.5625 32.055 48.5625 31.375 48.5625 C31.313125 47.985 31.25125 47.4075 31.1875 46.8125 C30.51109615 44.31092084 30.51109615 44.31092084 27.875 42.625 C25.375 40.5625 25.375 40.5625 24.5625 37.8125 C24.500625 37.07 24.43875 36.3275 24.375 35.5625 C23.385 35.5625 22.395 35.5625 21.375 35.5625 C21.375 34.5725 21.375 33.5825 21.375 32.5625 C20.715 32.5625 20.055 32.5625 19.375 32.5625 C19.375 31.9025 19.375 31.2425 19.375 30.5625 C18.570625 30.253125 17.76625 29.94375 16.9375 29.625 C14.375 28.5625 14.375 28.5625 13.375 27.5625 C11.70882885 27.52186168 10.04111905 27.519779 8.375 27.5625 C8.375 26.5725 8.375 25.5825 8.375 24.5625 C0.455 24.5625 -7.465 24.5625 -15.625 24.5625 Z " fill="#F5F3E6" transform="translate(797.625,141.4375)"/>
<path d="M0 0 C2.45862401 -0.05383848 4.9160755 -0.09359038 7.375 -0.125 C8.42300781 -0.15013672 8.42300781 -0.15013672 9.4921875 -0.17578125 C11.32897486 -0.19344267 13.16601963 -0.10303261 15 0 C15.66 0.66 16.32 1.32 17 2 C19.20250992 2.46006346 19.20250992 2.46006346 21.625 2.625 C22.44226563 2.69976562 23.25953125 2.77453125 24.1015625 2.8515625 C24.72804688 2.90054688 25.35453125 2.94953125 26 3 C26 3.66 26 4.32 26 5 C26.99 5 27.98 5 29 5 C29.495 5.99 29.495 5.99 30 7 C31.64363134 7.72159424 33.31050386 8.39351421 35 9 C35 9.66 35 10.32 35 11 C35.99 11.33 36.98 11.66 38 12 C38 13.65 38 15.3 38 17 C38.66 17 39.32 17 40 17 C40 18.65 40 20.3 40 22 C40.99 22 41.98 22 43 22 C43.02892385 26.12498538 43.04677267 30.24994485 43.0625 34.375 C43.07087891 35.550625 43.07925781 36.72625 43.08789062 37.9375 C43.09111328 39.05898437 43.09433594 40.18046875 43.09765625 41.3359375 C43.10289307 42.37282715 43.10812988 43.4097168 43.11352539 44.47802734 C43 47 43 47 42 49 C41.34 49 40.68 49 40 49 C40 50.98 40 52.96 40 55 C39.34 55 38.68 55 38 55 C38 55.99 38 56.98 38 58 C37.01 58 36.02 58 35 58 C35 58.99 35 59.98 35 61 C34.01 61 33.02 61 32 61 C32 61.99 32 62.98 32 64 C30.02 64 28.04 64 26 64 C26 64.99 26 65.98 26 67 C24.35 67 22.7 67 21 67 C21 67.66 21 68.32 21 69 C17.64600151 69.0878954 14.2923036 69.14068879 10.9375 69.1875 C9.99455078 69.21263672 9.05160156 69.23777344 8.08007812 69.26367188 C2.23357264 69.32478517 -1.81287544 68.74104641 -7 66 C-7 65.34 -7 64.68 -7 64 C-8.65 64 -10.3 64 -12 64 C-12 63.01 -12 62.02 -12 61 C-12.99 61 -13.98 61 -15 61 C-15 60.01 -15 59.02 -15 58 C-15.99 58 -16.98 58 -18 58 C-18 57.01 -18 56.02 -18 55 C-18.99 55 -19.98 55 -21 55 C-21 53.35 -21 51.7 -21 50 C-21.99 49.67 -22.98 49.34 -24 49 C-24 46.36 -24 43.72 -24 41 C-24.66 41 -25.32 41 -26 41 C-26 36.71 -26 32.42 -26 28 C-25.34 28 -24.68 28 -24 28 C-24 25.36 -24 22.72 -24 20 C-23.01 19.67 -22.02 19.34 -21 19 C-20.67 17.35 -20.34 15.7 -20 14 C-19.34 14 -18.68 14 -18 14 C-18 13.01 -18 12.02 -18 11 C-17.01 11 -16.02 11 -15 11 C-15 10.01 -15 9.02 -15 8 C-14.01 8 -13.02 8 -12 8 C-12 7.34 -12 6.68 -12 6 C-10.35 5.67 -8.7 5.34 -7 5 C-7 4.34 -7 3.68 -7 3 C-5.02 3 -3.04 3 -1 3 C-0.67 2.01 -0.34 1.02 0 0 Z " fill="#F3F2E5" transform="translate(617,52)"/>
<path d="M0 0 C0.99 0 1.98 0 3 0 C3.495 2.475 3.495 2.475 4 5 C4.99 5.33 5.98 5.66 7 6 C7 5.34 7 4.68 7 4 C8.375 2.375 8.375 2.375 10 1 C10.66 1 11.32 1 12 1 C11.34 2.65 10.68 4.3 10 6 C31.12 6 52.24 6 74 6 C73.01 6.66 72.02 7.32 71 8 C70.01 7.505 70.01 7.505 69 7 C69 7.99 69 8.98 69 10 C69.99 10.33 70.98 10.66 72 11 C47.91353915 11.02333208 23.82707999 11.0409807 -0.25938988 11.05181217 C-11.44246167 11.05697447 -22.62552645 11.06401592 -33.80859375 11.07543945 C-43.55263798 11.0853883 -53.29667714 11.09185391 -63.0407263 11.09408849 C-68.20292198 11.09539526 -73.36510313 11.09847896 -78.52729416 11.10573006 C-83.38137407 11.11249343 -88.23543341 11.11461631 -93.08951759 11.11310768 C-94.87539214 11.11338387 -96.66126734 11.11538712 -98.44713783 11.11920547 C-100.87684274 11.12414765 -103.30646898 11.12299632 -105.73617554 11.12025452 C-106.45017529 11.12316736 -107.16417504 11.1260802 -107.89981115 11.12908131 C-112.77175758 11.11412121 -112.77175758 11.11412121 -115 10 C-114.67 9.01 -114.34 8.02 -114 7 C-113.43585483 6.99761165 -112.87170965 6.99522329 -112.29046917 6.99276257 C-98.56978286 6.93365181 -84.84927495 6.85793751 -71.12877941 6.76428509 C-64.49366144 6.71949948 -57.85860604 6.68026143 -51.22338867 6.65356445 C-44.82368073 6.62761323 -38.42421253 6.58726898 -32.02465248 6.53681374 C-29.57937914 6.52008955 -27.13406429 6.50861 -24.68874168 6.50238609 C-21.27164771 6.4928054 -17.85517487 6.46481811 -14.43823242 6.43237305 C-13.42043701 6.43380814 -12.4026416 6.43524323 -11.35400391 6.4367218 C-9.9594825 6.41791458 -9.9594825 6.41791458 -8.53678894 6.39872742 C-7.72837649 6.39411845 -6.91996405 6.38950949 -6.08705425 6.38476086 C-3.46597657 5.90154961 -2.60927765 5.09199002 -1 3 C-0.67 2.01 -0.34 1.02 0 0 Z " fill="#DCDACE" transform="translate(342,337)"/>
<path d="M0 0 C0.99 0.33 1.98 0.66 3 1 C2.67 2.65 2.34 4.3 2 6 C3.13846375 5.99666908 3.13846375 5.99666908 4.29992676 5.99327087 C11.47891254 5.97317116 18.65788452 5.9579767 25.83689117 5.94818783 C29.52701526 5.94298599 33.21711594 5.93593776 36.90722656 5.92456055 C40.4733859 5.91363525 44.03952284 5.90770287 47.60569763 5.90512276 C49.6173883 5.90239642 51.62907005 5.89459988 53.64074707 5.88670349 C59.85762223 5.88632502 65.8563049 6.02228641 72 7 C72 8.32 72 9.64 72 11 C42.96 11 13.92 11 -16 11 C-15 7 -15 7 -12 5 C-11.67 4.01 -11.34 3.02 -11 2 C-10.01 2 -9.02 2 -8 2 C-8 2.99 -8 3.98 -8 5 C-6.68 5 -5.36 5 -4 5 C-4 4.34 -4 3.68 -4 3 C-2.68 2.67 -1.36 2.34 0 2 C0 1.34 0 0.68 0 0 Z " fill="#E2DFD6" transform="translate(579,337)"/>
<path d="M0 0 C24.75 0 49.5 0 75 0 C75.495 1.98 75.495 1.98 76 4 C68.89144693 4.02584822 61.78290641 4.04306976 54.67431641 4.05493164 C52.26773628 4.05988872 49.86115905 4.06665635 47.45458984 4.07543945 C31.27460102 4.13291121 15.15958074 3.83430789 -1 3 C-0.67 2.01 -0.34 1.02 0 0 Z " fill="#D7D5CB" transform="translate(1050,344)"/>
<path d="M0 0 C0.99 0 1.98 0 3 0 C3.33 1.32 3.66 2.64 4 4 C23.14 4 42.28 4 62 4 C61.67 4.66 61.34 5.32 61 6 C54.4 6 47.8 6 41 6 C40.67 6.66 40.34 7.32 40 8 C43.3 8 46.6 8 50 8 C50 8.33 50 8.66 50 9 C33.5 9 17 9 0 9 C-2 5 -2 5 -1.125 2.25 C-0.75375 1.5075 -0.3825 0.765 0 0 Z " fill="#E1E0D8" transform="translate(457,339)"/>
<path d="M0 0 C18.81 0 37.62 0 57 0 C57.495 0.99 57.495 0.99 58 2 C57.67 2.66 57.34 3.32 57 4 C35.88 4 14.76 4 -7 4 C-7 3.67 -7 3.34 -7 3 C-4.69 3 -2.38 3 0 3 C0 2.01 0 1.02 0 0 Z " fill="#E1DED2" transform="translate(61,344)"/>
<path d="M0 0 C0.66 0 1.32 0 2 0 C2 16.17 2 32.34 2 49 C0.515 49.495 0.515 49.495 -1 50 C-1.02526838 43.03996553 -1.04283222 36.0799428 -1.05493164 29.11987305 C-1.05997341 26.75007688 -1.06680665 24.38028385 -1.07543945 22.01049805 C-1.0875119 18.61245961 -1.09322971 15.21446215 -1.09765625 11.81640625 C-1.10281754 10.74975235 -1.10797882 9.68309845 -1.11329651 8.5841217 C-1.11337204 7.60318039 -1.11344757 6.62223907 -1.11352539 5.61157227 C-1.115746 4.74331314 -1.11796661 3.87505402 -1.12025452 2.98048401 C-1 1 -1 1 0 0 Z " fill="#EAEAE2" transform="translate(1113,199)"/>
<path d="M0 0 C0.99 0 1.98 0 3 0 C3.33 1.65 3.66 3.3 4 5 C4.99 5.33 5.98 5.66 7 6 C7 5.34 7 4.68 7 4 C8.375 2.375 8.375 2.375 10 1 C10.66 1 11.32 1 12 1 C11.34 2.65 10.68 4.3 10 6 C23.86 6 37.72 6 52 6 C52 6.33 52 6.66 52 7 C38.14 7 24.28 7 10 7 C9.67 8.32 9.34 9.64 9 11 C4.38 11 -0.24 11 -5 11 C-3.93877551 5.69387755 -3.93877551 5.69387755 -1 3 C-0.67 2.01 -0.34 1.02 0 0 Z " fill="#E2E1D7" transform="translate(342,337)"/>
<path d="M0 0 C8.91 0 17.82 0 27 0 C27.33 0.99 27.66 1.98 28 3 C24.3535194 3.8410478 21.00049093 4.11764968 17.26171875 4.09765625 C16.19501953 4.09443359 15.12832031 4.09121094 14.02929688 4.08789062 C12.37510742 4.07532227 12.37510742 4.07532227 10.6875 4.0625 C9.56537109 4.05798828 8.44324219 4.05347656 7.28710938 4.04882812 C4.5246849 4.03707313 1.76237002 4.02064077 -1 4 C-0.67 2.68 -0.34 1.36 0 0 Z " fill="#D6D4CC" transform="translate(352,344)"/>
<path d="M0 0 C1.485 0.99 1.485 0.99 3 2 C3.28053851 4.57000178 3.3721372 6.89560441 3.328125 9.46484375 C3.32531525 10.58675865 3.32531525 10.58675865 3.32244873 11.7313385 C3.3157152 13.32101877 3.30177496 14.91068212 3.28125 16.50024414 C3.25052173 18.89680941 3.24031795 21.2927117 3.234375 23.68945312 C3.13996761 42.74310119 3.13996761 42.74310119 2 48 C1.01 48.495 1.01 48.495 0 49 C0 32.83 0 16.66 0 0 Z " fill="#FFFFE7" transform="translate(992,265)"/>
<path d="M0 0 C8.79701169 -0.02317215 17.59401288 -0.04093997 26.39104843 -0.05181217 C30.47587919 -0.05703032 34.56068907 -0.06410861 38.64550781 -0.07543945 C42.58771215 -0.08630624 46.5298964 -0.09228489 50.47211456 -0.09487724 C51.9759986 -0.09672464 53.47988154 -0.10033213 54.98375702 -0.10573006 C57.09043248 -0.11299078 59.19702497 -0.11398881 61.30371094 -0.11352539 C63.10240631 -0.11685631 63.10240631 -0.11685631 64.93743896 -0.12025452 C67.49366028 -0.01988193 69.57301445 0.24357499 72 1 C72 2.32 72 3.64 72 5 C70.02 5 68.04 5 66 5 C65.505 3.02 65.505 3.02 65 1 C43.22 1.33 21.44 1.66 -1 2 C-0.67 1.34 -0.34 0.68 0 0 Z " fill="#E8E7DC" transform="translate(1060,343)"/>
<path d="M0 0 C0.33 0 0.66 0 1 0 C1.86513709 5.10052206 2.07660709 9.94673735 1.87890625 15.12109375 C1.85529526 15.86585464 1.83168427 16.61061554 1.80735779 17.37794495 C1.73144815 19.73136 1.64711673 22.08438358 1.5625 24.4375 C1.50920627 26.04360133 1.45646652 27.64972114 1.40429688 29.25585938 C1.275933 33.17081569 1.14002102 37.08544399 1 41 C0.34 41 -0.32 41 -1 41 C-1.84283726 33.93667815 -2.15458603 26.98550872 -2.125 19.875 C-2.12886719 18.93785156 -2.13273437 18.00070313 -2.13671875 17.03515625 C-2.11585259 2.11585259 -2.11585259 2.11585259 0 0 Z " fill="#FEFEE5" transform="translate(1056,226)"/>
<path d="M0 0 C0.99 0 1.98 0 3 0 C3 0.99 3 1.98 3 3 C4.32 3 5.64 3 7 3 C7.33 2.34 7.66 1.68 8 1 C8.33 2.65 8.66 4.3 9 6 C8.01 6 7.02 6 6 6 C6 6.66 6 7.32 6 8 C3.59454362 9.20272819 2.05003047 9.10071472 -0.625 9.0625 C-1.85089844 9.04896484 -1.85089844 9.04896484 -3.1015625 9.03515625 C-4.04128906 9.01775391 -4.04128906 9.01775391 -5 9 C-4.6875 7.125 -4.6875 7.125 -4 5 C-3.01 4.34 -2.02 3.68 -1 3 C-0.67 2.01 -0.34 1.02 0 0 Z " fill="#D8D8CD" transform="translate(568,339)"/>
<path d="M0 0 C0.33 0 0.66 0 1 0 C1 1.65 1 3.3 1 5 C0.01 5 -0.98 5 -2 5 C-1.67 5.99 -1.34 6.98 -1 8 C-1.825 8.53625 -2.65 9.0725 -3.5 9.625 C-6.33951208 11.80271869 -6.33951208 11.80271869 -6.3125 15.25 C-6.209375 16.1575 -6.10625 17.065 -6 18 C-7.32 18 -8.64 18 -10 18 C-11.39935013 15.20129973 -11.25265405 13.09501208 -11 10 C-9.6875 8.125 -9.6875 8.125 -8 7 C-7.01 7 -6.02 7 -5 7 C-4.731875 6.360625 -4.46375 5.72125 -4.1875 5.0625 C-3 3 -3 3 0 2 C0 1.34 0 0.68 0 0 Z " fill="#F5F3EE" transform="translate(230,332)"/>
<path d="M0 0 C6.6 0 13.2 0 20 0 C19.01 0.66 18.02 1.32 17 2 C16.34 1.67 15.68 1.34 15 1 C15 1.99 15 2.98 15 4 C15.99 4.33 16.98 4.66 18 5 C12.72 5 7.44 5 2 5 C2.33 3.68 2.66 2.36 3 1 C2.01 0.67 1.02 0.34 0 0 Z " fill="#E5E4D8" transform="translate(396,343)"/>
<path d="M0 0 C0.66 0.99 1.32 1.98 2 3 C1.525625 3.391875 1.05125 3.78375 0.5625 4.1875 C-1.35179633 6.40808374 -1.61266988 8.13375709 -2 11 C-2.66 11 -3.32 11 -4 11 C-4.33 11.99 -4.66 12.98 -5 14 C-5.66 14 -6.32 14 -7 14 C-8 10.9375 -8 10.9375 -8 7 C-5.65283752 4.23045521 -2.93858077 2.11552095 0 0 Z " fill="#F9F9ED" transform="translate(539,166)"/>
<path d="M0 0 C2.96 4.44 2.96 4.44 4 7 C3.67 7.99 3.34 8.98 3 10 C0.69 10 -1.62 10 -4 10 C-4 7.36 -4 4.72 -4 2 C-2.68 1.34 -1.36 0.68 0 0 Z M1 5 C0.67 6.32 0.34 7.64 0 9 C0.66 9 1.32 9 2 9 C1.67 7.68 1.34 6.36 1 5 Z " fill="#EDEDE1" transform="translate(1036,338)"/>
<path d="M0 0 C3.63 0 7.26 0 11 0 C11 1.32 11 2.64 11 4 C6.71 4 2.42 4 -2 4 C-1.34 3.67 -0.68 3.34 0 3 C0 2.01 0 1.02 0 0 Z " fill="#DBD9D1" transform="translate(640,344)"/>
<path d="M0 0 C0.33 0 0.66 0 1 0 C1 2.31 1 4.62 1 7 C0.34 7 -0.32 7 -1 7 C-1 7.99 -1 8.98 -1 10 C-0.34 10 0.32 10 1 10 C1 12.64 1 15.28 1 18 C0.01 18.33 -0.98 18.66 -2 19 C-2.05411124 16.58303128 -2.09372278 14.16728213 -2.125 11.75 C-2.14175781 11.06808594 -2.15851563 10.38617188 -2.17578125 9.68359375 C-2.21213482 5.9391765 -2.07944349 3.17647273 0 0 Z " fill="#FFFFFF" transform="translate(1056,297)"/>
<path d="M0 0 C4.62 0 9.24 0 14 0 C14 0.99 14 1.98 14 3 C12.04174127 3.02694851 10.08337774 3.04637218 8.125 3.0625 C7.03445313 3.07410156 5.94390625 3.08570313 4.8203125 3.09765625 C2 3 2 3 0 2 C0 1.34 0 0.68 0 0 Z " fill="#EBD2CD" transform="translate(784,350)"/>
<path d="M0 0 C1.32 0.66 2.64 1.32 4 2 C4.04241723 4.33294775 4.04092937 6.66702567 4 9 C3.67 9.33 3.34 9.66 3 10 C1.35 10 -0.3 10 -2 10 C-1.34 6.7 -0.68 3.4 0 0 Z " fill="#D2D3CC" transform="translate(1014,338)"/>
<path d="M0 0 C1.485 0.99 1.485 0.99 3 2 C2.67 6.62 2.34 11.24 2 16 C1.34 16 0.68 16 0 16 C0 10.72 0 5.44 0 0 Z " fill="#FFFFA7" transform="translate(992,265)"/>
<path d="M0 0 C0.66 0 1.32 0 2 0 C3.26237731 2.52475462 3.09856404 4.31200466 3.0625 7.125 C3.05347656 8.03507813 3.04445313 8.94515625 3.03515625 9.8828125 C3.02355469 10.58148438 3.01195312 11.28015625 3 12 C2.01 12.33 1.02 12.66 0 13 C0 8.71 0 4.42 0 0 Z " fill="#EEEBE0" transform="translate(903,242)"/>
<path d="M0 0 C1.65 0 3.3 0 5 0 C5 0.99 5 1.98 5 3 C4.01 3 3.02 3 2 3 C2 3.99 2 4.98 2 6 C0.02 6 -1.96 6 -4 6 C-4 5.01 -4 4.02 -4 3 C-3.01 3 -2.02 3 -1 3 C-0.67 2.01 -0.34 1.02 0 0 Z " fill="#ECECDF" transform="translate(349,331)"/>
<path d="M0 0 C0.61875 0.350625 1.2375 0.70125 1.875 1.0625 C2.57625 1.371875 3.2775 1.68125 4 2 C4.66 1.67 5.32 1.34 6 1 C5.67 1.99 5.34 2.98 5 4 C4.34 4 3.68 4 3 4 C3 4.99 3 5.98 3 7 C1.68 7 0.36 7 -1 7 C-1.33 6.34 -1.66 5.68 -2 5 C-2.99 5.495 -2.99 5.495 -4 6 C-2.84826645 3.53199953 -1.95216435 1.95216435 0 0 Z " fill="#F7F5F3" transform="translate(406,304)"/>
<path d="M0 0 C1.18851563 0.10183594 2.37703125 0.20367187 3.6015625 0.30859375 C4.51679687 0.39238281 5.43203125 0.47617188 6.375 0.5625 C6.375 1.2225 6.375 1.8825 6.375 2.5625 C1.425 2.5625 -3.525 2.5625 -8.625 2.5625 C-8.625 1.9025 -8.625 1.2425 -8.625 0.5625 C-5.68113377 -0.90943312 -3.25109964 -0.28686173 0 0 Z " fill="#FFFFF3" transform="translate(797.625,141.4375)"/>
<path d="M0 0 C0.66 0 1.32 0 2 0 C2 4.62 2 9.24 2 14 C1.34 14 0.68 14 0 14 C-1.33257403 4.58997722 -1.33257403 4.58997722 0 0 Z " fill="#FFFFC9" transform="translate(932,279)"/>
<path d="M0 0 C-0.33 2.64 -0.66 5.28 -1 8 C-2.32 8 -3.64 8 -5 8 C-5 5.69 -5 3.38 -5 1 C-2 0 -2 0 0 0 Z " fill="#F0F0EE" transform="translate(208,213)"/>
<path d="M0 0 C0.99 0.66 1.98 1.32 3 2 C3.1875 5.625 3.1875 5.625 3 9 C2.01 9.495 2.01 9.495 1 10 C-0.13350534 12.01669827 -0.13350534 12.01669827 -1 14 C-1 12.68 -1 11.36 -1 10 C-1.66 9.67 -2.32 9.34 -3 9 C-2.505 8.62875 -2.01 8.2575 -1.5 7.875 C0.59755514 5.25305607 0.21743835 3.26157528 0 0 Z " fill="#F8F8F3" transform="translate(755,286)"/>
<path d="M0 0 C0.66 0 1.32 0 2 0 C3.52150158 3.04300316 3.23899393 5.654085 3 9 C2.01 9.66 1.02 10.32 0 11 C0 7.37 0 3.74 0 0 Z " fill="#F7F7F0" transform="translate(599,201)"/>
<path d="M0 0 C0.66 0 1.32 0 2 0 C1.97679687 0.68707031 1.95359375 1.37414062 1.9296875 2.08203125 C1.91164063 2.98308594 1.89359375 3.88414063 1.875 4.8125 C1.85179687 5.70582031 1.82859375 6.59914063 1.8046875 7.51953125 C1.81714173 10.25402714 1.81714173 10.25402714 4 13 C3.01 14.485 3.01 14.485 2 16 C2 15.01 2 14.02 2 13 C1.34 13 0.68 13 0 13 C0 8.71 0 4.42 0 0 Z " fill="#FEFEF0" transform="translate(591,80)"/>
<path d="M0 0 C0 0.66 0 1.32 0 2 C-3.47325181 3.1577506 -6.36067448 3.06866652 -10 3 C-9.67 2.01 -9.34 1.02 -9 0 C-3.375 -1.125 -3.375 -1.125 0 0 Z " fill="#FCF9ED" transform="translate(793,347)"/>
<path d="M0 0 C2.31 0 4.62 0 7 0 C7 1.32 7 2.64 7 4 C5.02 4 3.04 4 1 4 C0.67 2.68 0.34 1.36 0 0 Z " fill="#E0E0D4" transform="translate(1125,344)"/>
<path d="M0 0 C1.65 0 3.3 0 5 0 C5 0.99 5 1.98 5 3 C5.99 3.33 6.98 3.66 8 4 C4.7 4 1.4 4 -2 4 C-1.34 2.68 -0.68 1.36 0 0 Z " fill="#D9D8CD" transform="translate(406,344)"/>
<path d="M0 0 C0.99 0.33 1.98 0.66 3 1 C2.01 1.66 1.02 2.32 0 3 C0 2.01 0 1.02 0 0 Z M-3 3 C-2.01 3 -1.02 3 0 3 C-1.44253657 6.36591866 -3.33264727 8.51047079 -6 11 C-6.66 10.34 -7.32 9.68 -8 9 C-6.625 7.5 -6.625 7.5 -5 6 C-4.34 6 -3.68 6 -3 6 C-3 5.01 -3 4.02 -3 3 Z " fill="#FEFEF7" transform="translate(1177,317)"/>
<path d="M0 0 C0.99 0.33 1.98 0.66 3 1 C2.04956626 2.33897583 1.08940853 3.67105427 0.125 5 C-0.40867187 5.7425 -0.94234375 6.485 -1.4921875 7.25 C-1.98976563 7.8275 -2.48734375 8.405 -3 9 C-3.66 9 -4.32 9 -5 9 C-5.33 9.66 -5.66 10.32 -6 11 C-5.67 9.35 -5.34 7.7 -5 6 C-4.34 6 -3.68 6 -3 6 C-3 5.01 -3 4.02 -3 3 C-2.01 3 -1.02 3 0 3 C0 2.01 0 1.02 0 0 Z " fill="#FEFEE1" transform="translate(602,60)"/>
<path d="M0 0 C0.33 0.99 0.66 1.98 1 3 C1.66 3 2.32 3 3 3 C3 4.98 3 6.96 3 9 C2.01 9 1.02 9 0 9 C-0.185625 7.824375 -0.185625 7.824375 -0.375 6.625 C-0.79117993 3.85942178 -0.79117993 3.85942178 -3 2 C-2.01 1.34 -1.02 0.68 0 0 Z " fill="#D0CDCB" transform="translate(425,339)"/>
<path d="M0 0 C0.33 0 0.66 0 1 0 C1 1.65 1 3.3 1 5 C0.01 5 -0.98 5 -2 5 C-2 5.99 -2 6.98 -2 8 C-3.65 8 -5.3 8 -7 8 C-6.34 7.67 -5.68 7.34 -5 7 C-4.5359375 6.01 -4.5359375 6.01 -4.0625 5 C-3 3 -3 3 0 2 C0 1.34 0 0.68 0 0 Z " fill="#F0E7E2" transform="translate(230,332)"/>
<path d="M0 0 C0.33 0 0.66 0 1 0 C0.67 3.63 0.34 7.26 0 11 C-0.99 11 -1.98 11 -3 11 C-3.125 8.625 -3.125 8.625 -3 6 C-2.34 5.34 -1.68 4.68 -1 4 C-0.3574765 1.93125966 -0.3574765 1.93125966 0 0 Z " fill="#EDEDE3" transform="translate(174,135)"/>
<path d="M0 0 C2.64 0 5.28 0 8 0 C8 0.99 8 1.98 8 3 C5.36 3 2.72 3 0 3 C0 2.01 0 1.02 0 0 Z " fill="#EEECE0" transform="translate(813,347)"/>
<path d="M0 0 C0.33 0.99 0.66 1.98 1 3 C1.66 3.33 2.32 3.66 3 4 C1.75 6 1.75 6 0 8 C-1.32 8 -2.64 8 -4 8 C-4 7.34 -4 6.68 -4 6 C-4.66 5.67 -5.32 5.34 -6 5 C-4.02 5 -2.04 5 0 5 C0 3.35 0 1.7 0 0 Z " fill="#ECE7DC" transform="translate(698,277)"/>
<path d="M0 0 C0.99 0.33 1.98 0.66 3 1 C3 3.31 3 5.62 3 8 C2.01 8 1.02 8 0 8 C0 5.36 0 2.72 0 0 Z " fill="#DADACE" transform="translate(1032,340)"/>
<path d="M0 0 C0.66 0 1.32 0 2 0 C2 0.66 2 1.32 2 2 C1.34 2 0.68 2 0 2 C-0.268125 2.598125 -0.53625 3.19625 -0.8125 3.8125 C-1.99917406 5.99847854 -3.09599113 7.41332594 -5 9 C-5.66 9 -6.32 9 -7 9 C-7 8.01 -7 7.02 -7 6 C-6.01 6 -5.02 6 -4 6 C-3.67 5.01 -3.34 4.02 -3 3 C-2.34 3 -1.68 3 -1 3 C-0.67 2.01 -0.34 1.02 0 0 Z " fill="#FFFFF1" transform="translate(924,325)"/>
<path d="M0 0 C0.66 0.33 1.32 0.66 2 1 C2 2.32 2 3.64 2 5 C1.01 5 0.02 5 -1 5 C-1 5.66 -1 6.32 -1 7 C-1.66 7 -2.32 7 -3 7 C-3.33 6.01 -3.66 5.02 -4 4 C-2.68 3.34 -1.36 2.68 0 2 C0 1.34 0 0.68 0 0 Z " fill="#ABABA7" transform="translate(575,340)"/>
<path d="M0 0 C2 1 2 1 3 3 C2.39421747 5.01927511 1.73080266 7.02253397 1 9 C0.34 8.67 -0.32 8.34 -1 8 C-1.125 2.25 -1.125 2.25 0 0 Z " fill="#D2D2C6" transform="translate(220,340)"/>
<path d="M0 0 C0.99 0 1.98 0 3 0 C3 1.65 3 3.3 3 5 C2.360625 5.268125 1.72125 5.53625 1.0625 5.8125 C-1.33131686 6.88667752 -1.33131686 6.88667752 -2 10 C-2 8.68 -2 7.36 -2 6 C-1.34 5.67 -0.68 5.34 0 5 C0 3.35 0 1.7 0 0 Z " fill="#E6E6DD" transform="translate(565,337)"/>
<path d="M0 0 C0 2.64 0 5.28 0 8 C-0.99 7.67 -1.98 7.34 -3 7 C-3 5.02 -3 3.04 -3 1 C-1 0 -1 0 0 0 Z " fill="#ECE8E0" transform="translate(903,224)"/>
<path d="M0 0 C1.98 0 3.96 0 6 0 C6 1.98 6 3.96 6 6 C5.01 6 4.02 6 3 6 C3 4.35 3 2.7 3 1 C2.01 0.67 1.02 0.34 0 0 Z " fill="#FFFFF6" transform="translate(562,147)"/>
<path d="M0 0 C0.66 0 1.32 0 2 0 C2.33 2.31 2.66 4.62 3 7 C2.01 7.33 1.02 7.66 0 8 C-0.79953138 4.71303767 -1.09658936 3.28976808 0 0 Z " fill="#E6E5D9" transform="translate(235,146)"/>
<path d="M0 0 C1.32 0.33 2.64 0.66 4 1 C1.03 3.475 1.03 3.475 -2 6 C-2 5.01 -2 4.02 -2 3 C-1.34 3 -0.68 3 0 3 C0 2.01 0 1.02 0 0 Z M-5 6 C-4.34 6.66 -3.68 7.32 -3 8 C-3.66 8 -4.32 8 -5 8 C-5 7.34 -5 6.68 -5 6 Z " fill="#FDFDEB" transform="translate(1051,320)"/>
<path d="M0 0 C0.66 0 1.32 0 2 0 C3.4783226 2.95664519 3.06032783 5.74229737 3 9 C2.34 9 1.68 9 1 9 C0.67 6.03 0.34 3.06 0 0 Z " fill="#FFFFFF" transform="translate(1054,258)"/>
<path d="M0 0 C1.32 0 2.64 0 4 0 C3.67 0.66 3.34 1.32 3 2 C2.731875 2.680625 2.46375 3.36125 2.1875 4.0625 C1 6 1 6 -1.125 6.75 C-2.053125 6.87375 -2.053125 6.87375 -3 7 C-2.01 4.69 -1.02 2.38 0 0 Z " fill="#FDFDEE" transform="translate(476,208)"/>
<path d="M0 0 C0.28875 0.61875 0.5775 1.2375 0.875 1.875 C1.93720042 4.13325765 1.93720042 4.13325765 4 6 C3.625 8.125 3.625 8.125 3 10 C0.9375 7.8125 0.9375 7.8125 -1 5 C-0.75 2.1875 -0.75 2.1875 0 0 Z " fill="#FFFFFE" transform="translate(185,165)"/>
<path d="M0 0 C1.98 0 3.96 0 6 0 C6 0.99 6 1.98 6 3 C3.69 3 1.38 3 -1 3 C-0.67 2.01 -0.34 1.02 0 0 Z " fill="#DED7CB" transform="translate(801,350)"/>
<path d="M0 0 C1.32 0.33 2.64 0.66 4 1 C4 1.99 4 2.98 4 4 C1.69 4 -0.62 4 -3 4 C-2.34 3.67 -1.68 3.34 -1 3 C-0.67 2.01 -0.34 1.02 0 0 Z " fill="#EDEBE4" transform="translate(832,344)"/>
<path d="M0 0 C0.33 0.99 0.66 1.98 1 3 C3.97 3.495 3.97 3.495 7 4 C7 4.66 7 5.32 7 6 C2.545 5.01 2.545 5.01 -2 4 C-1.34 2.68 -0.68 1.36 0 0 Z " fill="#E8E6DF" transform="translate(763,344)"/>
<path d="M0 0 C0.99 0 1.98 0 3 0 C3 3 3 3 1.6875 4.6875 C0 6 0 6 -3 6 C-3 5.01 -3 4.02 -3 3 C-2.01 3 -1.02 3 0 3 C0 2.01 0 1.02 0 0 Z " fill="#FEFEF7" transform="translate(52,331)"/>
<path d="M0 0 C0.33 0.99 0.66 1.98 1 3 C-2.96 4.98 -2.96 4.98 -7 7 C-6.67 6.01 -6.34 5.02 -6 4 C-5.34 4 -4.68 4 -4 4 C-4 3.34 -4 2.68 -4 2 C-2.68 1.34 -1.36 0.68 0 0 Z " fill="#FDFDF3" transform="translate(363,321)"/>
<path d="M0 0 C2.0625 0.4375 2.0625 0.4375 4 1 C3.67 1.66 3.34 2.32 3 3 C2.01 3 1.02 3 0 3 C0 3.66 0 4.32 0 5 C-0.99 5 -1.98 5 -3 5 C-1.125 1.125 -1.125 1.125 0 0 Z " fill="#EEEEE0" transform="translate(540,169)"/>
<path d="M0 0 C0.66 0 1.32 0 2 0 C2 2.31 2 4.62 2 7 C1.01 7 0.02 7 -1 7 C-0.67 4.69 -0.34 2.38 0 0 Z " fill="#E1E1DA" transform="translate(1138,341)"/>
<path d="M0 0 C0.99 0 1.98 0 3 0 C2.67 1.32 2.34 2.64 2 4 C1.34 4 0.68 4 0 4 C0 4.66 0 5.32 0 6 C-1.32 5.67 -2.64 5.34 -4 5 C-3.34 5 -2.68 5 -2 5 C-2 4.34 -2 3.68 -2 3 C-1.34 3 -0.68 3 0 3 C0 2.01 0 1.02 0 0 Z " fill="#FAFEF7" transform="translate(914,334)"/>
<path d="M0 0 C0.99 0 1.98 0 3 0 C3 0.99 3 1.98 3 3 C2.34 3 1.68 3 1 3 C1 3.99 1 4.98 1 6 C0.01 6 -0.98 6 -2 6 C-2 5.01 -2 4.02 -2 3 C-1.34 3 -0.68 3 0 3 C0 2.01 0 1.02 0 0 Z " fill="#DBDBD7" transform="translate(855,333)"/>
<path d="M0 0 C0.66 0 1.32 0 2 0 C1.74438677 2.3431213 1.40729228 4.67843403 1 7 C0.01 7.495 0.01 7.495 -1 8 C-1.04241723 5.66705225 -1.04092937 3.33297433 -1 1 C-0.67 0.67 -0.34 0.34 0 0 Z " fill="#EBE8DD" transform="translate(752,296)"/>
<path d="M0 0 C0.66 0 1.32 0 2 0 C2 2.64 2 5.28 2 8 C1.34 7.67 0.68 7.34 0 7 C-0.6875 4 -0.6875 4 -1 1 C-0.67 0.67 -0.34 0.34 0 0 Z " fill="#FFFFE6" transform="translate(1055,267)"/>
<path d="M0 0 C0.99 0 1.98 0 3 0 C3 0.99 3 1.98 3 3 C2.01 3 1.02 3 0 3 C0 5.31 0 7.62 0 10 C-0.33 10 -0.66 10 -1 10 C-1.02689216 8.52093108 -1.04634621 7.04172517 -1.0625 5.5625 C-1.07410156 4.73878906 -1.08570313 3.91507813 -1.09765625 3.06640625 C-1 1 -1 1 0 0 Z " fill="#E9E9DD" transform="translate(1112,251)"/>
<path d="M0 0 C0.66 0.33 1.32 0.66 2 1 C2 2.98 2 4.96 2 7 C1.01 6.67 0.02 6.34 -1 6 C-1.042721 4.33388095 -1.04063832 2.66617115 -1 1 C-0.67 0.67 -0.34 0.34 0 0 Z " fill="#FFFFF4" transform="translate(1236,183)"/>
<path d="M0 0 C0 0.99 0 1.98 0 3 C-3 5.1875 -3 5.1875 -6 7 C-5.67 5.68 -5.34 4.36 -5 3 C-4.34 3 -3.68 3 -3 3 C-3 2.34 -3 1.68 -3 1 C-2.01 0.67 -1.02 0.34 0 0 Z " fill="#FEFEE5" transform="translate(1124,163)"/>
<path d="M0 0 C1.32 0 2.64 0 4 0 C4 1.65 4 3.3 4 5 C2.68 4.67 1.36 4.34 0 4 C0 2.68 0 1.36 0 0 Z " fill="#C1C1BC" transform="translate(1154,343)"/>
<path d="M0 0 C0.99 0.33 1.98 0.66 3 1 C3 1.66 3 2.32 3 3 C3.99 3.33 4.98 3.66 6 4 C5.67 4.66 5.34 5.32 5 6 C4.01 6 3.02 6 2 6 C1.34 4.02 0.68 2.04 0 0 Z " fill="#E9E9E1" transform="translate(1009,334)"/>
<path d="M0 0 C0.99 0 1.98 0 3 0 C3.36923077 4.55384615 3.36923077 4.55384615 1.5 6.8125 C1.005 7.204375 0.51 7.59625 0 8 C0.20625 7.38125 0.4125 6.7625 0.625 6.125 C0.74875 5.42375 0.8725 4.7225 1 4 C0.34 3.34 -0.32 2.68 -1 2 C-0.67 1.34 -0.34 0.68 0 0 Z " fill="#F6F7F4" transform="translate(883,308)"/>
<path d="M0 0 C0.99 0.33 1.98 0.66 3 1 C3 1.66 3 2.32 3 3 C3.66 3.33 4.32 3.66 5 4 C2.50907189 5.24546405 1.58919267 4.7767578 -1 4 C-0.67 2.68 -0.34 1.36 0 0 Z " fill="#F9F9F0" transform="translate(1120,187)"/>
</svg>
